<?xml version="1.0" encoding="utf-8"?>
<!-- Generator: Adobe Illustrator 28.2.0, SVG Export Plug-In . SVG Version: 6.00 Build 0)  -->
<svg version="1.1" id="Layer_1" xmlns="http://www.w3.org/2000/svg" xmlns:xlink="http://www.w3.org/1999/xlink" x="0px" y="0px"
	 viewBox="0 0 894 894" style="enable-background:new 0 0 894 894;" xml:space="preserve">
<style type="text/css">
	.st0{fill:#053266;}
	.st1{fill:#EB3705;}
	.st2{fill:#012656;}
	.st3{fill:#FCFCFD;}
	.st4{fill:#FAFBFC;}
	.st5{fill:#FCFAF2;}
	.st6{fill:#196599;}
	.st7{fill:#C7D1DC;}
	.st8{fill:#F6F8F9;}
	.st9{fill:#F8F8F1;}
	.st10{fill:#A0DEE8;}
	.st11{fill:#001333;}
</style>
<g>
	<path class="st0" d="M118.3,605.4c-16.5-3.3-28.8-12.8-37.7-26.6c-14.2-22.1-19.2-46-12.5-71.7c4.7-17.9,15.8-30.4,33.2-37.3
		c6.5-2.5,13-5,19-8.7c5.5-1.6,10.7-4.1,15.8-6.7c0.8-0.2,1.6-0.4,2.4-0.7c25.3-11.1,50.6-22.3,75.9-33.4c1.4-0.6,2.7-1.3,3.9-2.2
		c26.7-19.7,54.5-37.9,78.5-60.9c7.9-7.6,18.4-4.8,26.6-9.9c0.6-0.4,1.9,0.2,2.9,0.4c1,0.3,1.9,0.5,2.9-0.2c6-4.1,13.7-2.1,19.9-5.8
		c2.4-1.4,5.6-0.3,8.3,0.5c3.5,1,7.1,1.9,10.4,3.4c6.4,2.9,12.3,2.5,18.5-0.9c3.2-1.7,4.4-3.5,4.9-7.1c2.8-19.9,13-33.8,32.9-39.7
		c8.2-2.4,16.5-4,24.8-5.7c7.1-0.7,14.1,0.7,21.2,0.6c6.2,1.9,12.8,2.8,18.7,5.8c0.5,0.3,1.4,0.2,1.9-0.1c4.3-2.1,9-3.2,12.8-6.2
		c11.9-4.4,23.3-9.6,34.7-15.2c6.4-1.2,9.2-4.6,10.6-11.5c7-35.4,19.3-69.1,32.4-102.6c0.2-0.4,0.6-0.8,0.9-1.2c3.4,2,2.5,6.4,4.8,9
		c-0.5,1.6-1,3.1-1.6,4.7c-10.3,27.6-19.9,55.4-26.8,84c-0.7,2.9-1.9,5.9-1.3,9.4c3.3-1.3,6.4-2.5,9.5-3.7c1.9,3.2,5,5.8,6.2,9.5
		c0.5,1.6,2,2.1,3.5,2.4c-2,2.7-5.2,3.2-8,4.6c-7.7,4-16.2,6.4-23.6,11c-6.1,3.5-8.8,15.3-5.2,22.5c2.2,4.3,4.4,4.6,8.4,1.1
		c8.7-2,16.2-6.7,23.8-10.9c15.5-8.6,32.1-15.1,47.1-24.6c3.6-1.1,6.8-2.8,6.9-7.1c0.1-5.7,1.6-12.2-6-14.9c1-1.5,2.8-1.6,4.3-2.3
		c11.6-5.3,12.7-5.2,17.4,6c4.8,11.4,14.3,17.9,23.8,24.5c8.4,5.8,18.7,6.3,27.9,9.8c3.6,1.3,7.4,3.4,11.5,1c1.6,6.6,2.5,13.3,3,20
		c-2.4,0.1-4.6-1.5-7.1-0.9c-0.3,0-0.5,0-0.8-0.1c-0.7-2.8,2-7.1-3.2-7.9c-2.4-0.4-5-0.3-7.4,0.1c-4.8,0.7-6.3,3.9-4.3,8.9
		c1,8.7,1.8,17.5,3.2,26.2c4.8,30.9,9.7,61.7,14.6,92.5c1.8,11.3,3.4,22.7,5.3,34c0.2,1.5-0.1,3.6,2.1,4c3.8,0.7,12.2-7.4,11.6-11.3
		c-2.4-17.3-4.5-34.6-7.3-51.8c-3-19.2-5.8-38.4-8.1-57.7c1.8,0.4,1.4,1.8,1.5,3c0.1,4,0.2,8,6,7c0.3,0,0.6-0.1,0.9-0.3
		c0.3,0.1,0.6,0.2,0.9,0.3c-0.7,2.3-0.2,4.6,0.1,6.9c1.2,8.1,2.5,16.1,3.8,24.2c1,6.8,1,6.8,7.5,5.9c1.3-0.2,2.7,0,4-0.2
		c5.8-0.7,11.4,0.2,17.1,0.8c5.4,0.5,9.3,2,11.7,6.8s2.7,10-0.9,14.1c-3,3.5-5.8,7.2-9,10.5c-3.8,3.9-9.6,4.4-14.3,6.8
		c-3.2,1.7-4.5,3.2-3.9,6.8c1.9,12.8,3.8,25.7,5.2,38.6c2.8,24.3,5.1,48.7,3.7,73.3c-0.8,13.8-5.9,25.5-15.6,35.2
		c-8.6,8.7-19,12-31.1,9.7c-12.7-2.4-23.9-8-33-17.3c-0.7,1.3-0.1,2.2,0.3,3.1c7.5,18.6,13.6,37.6,15.4,57.7
		c0.1,1.6,0.9,2.8,1.8,4.1c4.3,6,7,12.8,9.2,19.8c3.4,10.6,4,21.6,4.7,32.5c-1,6.9-1.9,13.8-2.9,20.8l0.1-0.1
		c-0.7-0.2-0.9,0.3-1,0.9c-3.1,3.9-5.1,8.1-5.5,13.4c-0.7,7.8-4.5,14.5-10.1,20.1c-2.2,2.2-3.6,4.5-4.3,7.6
		c-1.5,6.5-4.5,7.8-11.1,8.1c-11.9,0.5-23.5-0.2-34.9-3.4c-3.9-0.9-7.9-1.5-11.6-2.8c-3.2-1.1-5,0-6.4,2.8c-0.7,1.5-1.6,2.9-2.4,4.4
		c-9.4,13.1-19,26.1-30.7,37.4c-15.1,14.6-31.8,26.9-52.3,33c-26.3,7.8-49.4,2.1-69.1-16.9c-14-13.5-22.9-30.2-28.9-48.4
		c-1.5-4.5-3.3-6.7-8.2-6.1c-2.9,0.4-6-0.1-9-0.2c-1.2-5.3-2-10.6-4-15.7c-2.2-9.5-4.2-19.1-6.7-28.6c-3.8-14.7-5.8-29.9-11.4-43.9
		c-11.8-29.7-24.6-59-36.9-88.4c-1.1-2.7-2.7-4.3-5.3-5.5c-8.2-3.7-16.3-7.5-24.4-11.6c-3.8-1.9-7-2.3-11.2-0.7
		c-16.1,6.2-25.4,3.5-36.2-10c-1.2-1.5-2.6-1.8-4.3-1.9c-10.9-0.8-21.2-3.7-31-8.7c-4.1-2.1-7.8-2.4-12.4,0.3
		c-23.4,13.6-47.2,26.7-70.8,40.1c-5.1,2.9-10.3,5.4-16.1,6.5C128.8,606,123.5,606.1,118.3,605.4z M496,837.9
		c-0.7,0.1-1.1,0.5-1.1,1.2c0.9,1.5,2.3,2,3.9,2c0.2,0.1,0.4,0.2,0.6,0.3c-0.1-0.2-0.2-0.4-0.3-0.6
		C498.3,839.6,497.4,838.5,496,837.9z M503,494c-0.3,0.3-0.7,0.6-1,0.9c-2,2-4.6,3.6-5.9,7.4c3.7-1.3,6-3,7.9-5.3
		c1.4-1.7,4.4-1.3,5-3.9c0-0.6,0.4-1,1-1.1c1.5,0.2,2.9,0,3-2c6.4-4.1,12.9-7.9,19.9-11c1.2-0.6,3.2-0.7,2.3-3
		c-1.2-2.9-2.5-5.8-5.1-7.8c-1.4-1.1-3-1.6-4.2,0.4c-5.2,9.1-13.4,15.5-20.1,23.2C504.3,491.9,503.6,492.8,503,494z M492,435.2
		c4.5-0.6,8.8-1.5,13-3.3c3.8-0.6,7.6-1,11.3-1.7c10.5-1.8,13.9-5.9,11.9-16.5c-1.7-9.1-3.1-18.3-4.1-27.5c-0.6-5.2-2.4-10-5.7-14.1
		c0.6-3.1,1.4-6.3-1.5-8.9c1.5-3.7,4.8-7.1,1.9-11.6c5.6-1.5,11.3-2.5,17.1-2.8c2.2-0.1,4.5-0.1,4.8-3.1c0.3-2.6-1.3-4.1-3.6-4.7
		c-3.5-0.9-7.2-2-10.7-2c-8.1,0-13-4.3-17.3-10.5c-12.7-18.6-30.5-28.2-52.9-29.1c-37.1-1.4-63.3,28.7-56,64.6
		c1.4,7,1.5,12.9-2.4,18.8c-4.2-1.2-8.5-1.8-12.5,0.7c-1.5,1-1.5-0.7-2.4-0.7c-1.7-5-2.2-10.2-2-15.3c0.2-7.8-2.2-13.4-10.3-15.6
		c-2-0.6-4-1.7-5.8-2.9c-7.6-5-15-3.3-22.9-0.5c-4.9,1.7-9.7,4-14.7,5c-7,1.3-13.7,4.4-21.1,4.4c-2.6,0-4.7,2.2-6.7,4.1
		c-11.4,11-22.7,22-36.4,30.3c-0.5,0.3-1.2,0.6-0.8,1.5c2.4,0.7,4.5-0.3,6.7-1.3c11.5-5,22.9-9.9,34.4-14.9c1.9-0.8,3.4-1.1,5.5,0.1
		c8.1,4.8,14,10.6,12.7,21c-0.1,0.6-0.1,1.4,0.1,2c1.2,3.5,4.1,3.9,7.3,3.7c2.9-0.2,3.8-1.8,3.7-4.7c-0.2-5.3-0.2-10.7,0-16
		c0.1-2.9-0.9-4.6-3.2-6.1c-3.9-2.5-7.6-5.3-11.4-8.1c-0.9-0.6-2.4-1.4-1.7-2.7c0.9-1.7,2.4-0.5,3.4,0c4.4,2.4,8.6,5.2,13.1,7.3
		c4,1.8,5.6,4.5,6,8.8c0.4,4.6,1.1,9.3,2.2,13.8c0.8,3.2,3.4,4.9,6.9,4.4c3.6-0.5,3.7-3.1,3.6-6c-0.3-6.2-0.7-12.3-0.7-18.5
		c0-2.7-1-4.2-3.3-5.5c-4.5-2.5-9-5.1-13.4-7.8c-1-0.6-3.1-1-2-2.7c0.9-1.4,2.4-0.5,3.6,0.1c5.6,3,11.1,6.1,16.7,9
		c2,1,2.2,2.6,2.4,4.5c0.4,5.3,0.8,10.6,1.3,15.9c0.3,3.8,1.8,7.2,6.1,7c4.4-0.2,4.9-3.9,4.7-7.5c-0.4-6.2-1.2-12.3-1.2-18.4
		c0-4.4-1.6-7.1-5.6-8.9c-3.7-1.7-7.1-4.1-11.1-6.5c2.1-1.3,3-1.1,4-0.7c9.9,4.3,19.6,8.9,18.2,22.4c-0.2,1.6,0.3,3.3,0.4,5
		c0.2,5.1,2.7,8,8,8.3c-0.4,10.9,0.7,21.9-0.9,32.8c-0.6,4-0.5,8.6,1.5,12.6c-0.2,2,0.2,3,2,3.3c3.6,0.5,6.8,2.2,10.6,2.4
		c8.5,0.4,12.3,6.3,8,13.6c-0.3,0.5-0.3,1.4-0.4,2c-3.6,3.6-9.6,4.3-13.4,8.1c2.2,0.5,4.2,1.3,6,1.7c-1,3.2-2,6.3-3,9.6
		c-3,0.7-6.3-0.2-9.2-0.3c-1.9,0-3.6,0.2-5.3,1.1c-26.1,14.3-52.3,28.7-78.4,42.9c-1.5,0.8-2.8,1.7-3.1,3.6
		c-1.7,9.1-2.5,18.2,0.2,27.2c2.1,6.9,5.4,13.9,12,16.5c10.3,3.9,21.3,5.8,32.5,8.8c-3.5-6.8-7-12.9-9.9-19.2
		c-4.4-9.4-6-15.9-5.6-20.2c1.6,2.2,3,4.2,4.6,6.1c4.2,5.4,8.8,10.4,14.6,14.2c2.9,1.8,4.5,1.7,5.9-1.8c3.3-8.2,6.9-16.2,10.5-24.3
		c1-2.3,1.5-5,3.9-7.4c-5.1,46.4,3,89.6,24.7,130.2c0-10,3.8-19.3,4.9-29c0.3-2.6,1.5-4.7,3.3-6.5c1.1-1,2.2-1.9,2.4-3.6
		c1-8.6,5-14.3,15-14.4c-2.8-5.2-3.4-10.2-1.1-15.3c1.1-2.4,2.8-4.8,5.7-3.3c4,2,8.4,2,12.4,3.6c4.4,1.8,6.6,0.2,8.3-3.9
		c5.4-12.9,12.7-24.9,20.5-36.5c1.5-2.3,1.6-3.9,0.4-6.3c-3.6-7.3-6.8-14.8-10.2-22.2c5.8,1.1,11.8,1.5,17.6,0.5
		c3.9-0.7,7.1-0.4,10.3,1.5c-2.6,3.5-5.1,6.9-7.7,10.4c3.9-2.8,7-6.3,9.9-10c0.7-0.9-0.5-1.3-1.4-1.2c2.2-3.1,3.8-7.3,6.7-9.2
		c4.5-2.9,4.8-6.3,4.2-10.8c-0.5-4.1-2-6.6-6.4-6.4c-0.1-3.3,2.7-5.6,3.2-8.7c1.5-6.9,7.1-10.2,12.5-13.2c3.7-2,7.8-4.1,12.2-3.6
		c2.4,0.3,3.6,0.3,3.5-2.3c-0.1-2.3,0.8-4.8-3.3-5.2c-9.9-0.8-19.9-0.9-29.8-0.9c-6.3,0-7.3-1.7-4.6-7.3c3.2-6.7,2.7-8.1-4.6-10.5
		c-1.7-0.6-2.7-1.1-2.4-2.9c0.4-0.2,0.8-0.4,1.1-0.5c0.6,0.2,1.1,0.4,1.7,0.6c0.4,1.6,1.1,2.2,2.1,0.4c3.4-0.3,7,0.7,10.1-1.5
		C486.8,436,489.5,436.8,492,435.2z M510,513c2.3-1,4.1-2.7,5.4-4.8c1.1,0.1,1.8-0.5,2.6-1.1c7.9-6.2,16.2-11.7,25.3-15.7
		c14.2-6.3,28.9-9.4,44.5-5.8c-4.2,0.5-8.5,0.4-12.7,1c-29.8,4.5-51.8,22-71.3,43.5c-13.1,14.4-23.4,30.6-32.8,47.5
		c-4.3,7.8-7.7,16.2-11.3,24.4c-2.1,4.8,2.8,5.9,5.3,7.5c3.3,2.1,3.1-2,3.7-3.5c5.9-13.2,12.1-26.2,19.8-38.4
		c16.6-26.5,36.3-50.2,64.1-65.7c16.5-9.1,34-14.2,53.1-9c0.6,0.2,1.4,0.1,1.5-1.2c-3.4-2.8-8.1-3-12-5.1
		c-8.9-4.8-18.5-7.4-28.7-7.5c-21.3-0.1-38.9,9.8-56.1,20.8c-0.3,0.2-0.3,0.9-0.4,1.3c-3.4,2.9-6.9,5.9-10.3,8.8
		c-7.2,6.1-13.3,13.2-19.1,20.6c-13.9,17.5-25.5,36.3-34.5,56.8c-2.4,5.5,0.7,6.6,3.4,9.1c2,1.9,3,1.3,4-0.9
		c2.2-4.7,4.5-9.2,6.7-13.9c7.6-16.1,17.4-30.9,28.2-45.1C495.3,528.3,503.1,521,510,513z M479,835.4c0.8,0.7,1.6,2.2,2.6,0.9
		c0.9-1.1-0.6-1.8-1.4-2.4c-13.2-12.4-21.3-27.9-27-44.9c-5.2-15.4-7.9-31.3-8.8-47.4c-0.7-12.1-1.3-24.3,0.6-36.4
		c0.7-4.3-1.3-6.3-4.8-8.1c-2.8-1.5-3.9-1.8-4.4,2c-1.3,8.6-0.8,17.3-0.7,25.9c0.1,23.1,3.4,45.8,12,67.4
		C453.9,809.5,463.3,824.8,479,835.4z M469,831.9c0.1,0.1,0.2,0.2,0.4,0.3C469.2,832.1,469.1,832,469,831.9
		c-0.3-0.3-0.6-0.8-0.9-1.1c-16.9-13.3-26.2-31.4-32.5-51.4c-7.7-24.6-9-49.9-8.4-75.4c0.1-3.3,0.9-6.6,0.8-9.9
		c-0.1-4.1-4.2-5-6.8-5.4c-3-0.4-1.9,3.1-2.1,5c-1.9,19.3-1.1,38.5,2.1,57.6c4.1,24.6,11.7,47.9,29,66.7
		C455.4,823.7,461,829.5,469,831.9z M617,501c0.3,0.3,0.6,0.5,0.9,0.8c0.1-0.2,0.2-0.3,0.3-0.5C617.8,501.2,617.4,501.1,617,501
		c-10.2-6.1-21.3-7-32.7-5.5c-20.4,2.7-37.1,13.2-52,26.7c-26.8,24.2-44.4,54.7-58.4,87.6c-1.9,4.5-1.3,7.2,2.3,10.1
		c2.6,2.1,3.5,2.1,4.7-1.1c7-17.8,15.2-35,25.6-51c12.4-18.9,26.6-36.2,45-49.7c13.5-9.8,28-17,45.1-18.5
		C603.7,499,610.2,501.1,617,501z M668.6,680.2c2.1,2.2,4.2,4.3,6.2,6.5c-0.8-3.3-2.1-6.1-4.6-8.1c-5.4-7.5-12.7-12.7-20.7-17
		c0.2-0.8,0.5-1.7,0.7-2.5c12.7,3.9,21.7,12.9,30.6,23c-2.3-22.2-19-40.3-41-45c-17.9-3.9-35-0.6-51.8,6.1
		c-5.7,2.3-7.4,6.2-7.6,11.5c-0.2,3.9,1.2,6,5.8,6.1c19.9,0.3,37.9,6.6,54.4,17.5c13,8.6,24,19.4,33.9,31.5c1.7,2,3.3,4.1,5.1,6.3
		c2.1-2.6,3.5-4.9,2-8c-7.5-15.6-19-27.2-34.6-34.6c-1.3-0.6-2.6-1.4-4.5-2.4c3.7-1.2,6.5-0.5,9.2,0.1
		C658.2,672.5,663.4,676.4,668.6,680.2z M673,742.9c2.2-2.5,2.9-5.7,2.8-8.8c-0.2-11-3.1-21-10.9-29.2c-5.7-6-12.1-11-19.3-14.9
		c-17.8-9.8-37-15.8-57-19c-25.6-4.1-51.4-7.6-77.1-11.3c-2.8-0.4-4.9-1.7-6.9-3.5c-17-15.5-34-31-51-46.4c-1.3-1.2-2.4-2.8-4.5-2.8
		c-11.8-0.1-23.6-0.6-35.5-0.4c-4.4,0.1-5.1,4.1-5.3,7.8c-0.2,3.9,2.2,4.5,5.5,4.5c6.3,0.1,12.6,0.6,19,1c1.2,0.1,3.1-0.3,3.2,1.5
		c0.1,1.7-1.6,2.4-3.2,2.5c-1.2,0.1-2.3,0-3.5,0c-6.8,0-13.7-0.1-20.5,0.1c-4.5,0.1-5.6,3.3-5.9,7.2c-0.4,4.2,2.3,4.4,5.3,4.6
		c6,0.4,12,0.9,17.9,1.3c1.3,0.1,3.2-0.2,3.3,1.4c0.1,1.6-1.6,2.4-3.2,2.6c-1.3,0.1-2.7,0-4-0.1c-6-0.4-12-1-17.9-1.2
		c-4.4-0.1-5.3,3.3-5.8,6.7c-0.5,3.9,2.4,3.6,4.9,3.8c5.8,0.5,11.6,1,17.4,1.6c1.8,0.2,4.3,0.2,4.1,2.5c-0.1,2.1-2.5,2.4-4.3,2.5
		c-6.1,0.4-12.3,0.7-18.5,1c-5.8,0.3-6.6,1.2-6.3,6.8c0.1,1.8,0.2,3.7,1.2,5.3c2.5,4.7,6.8,7.5,10.9,11.7c0.7-7.5,0.7-7.5,7-7.4
		c1.5,0,3.1,0.2,4.5-0.3c3.9-1.2,6.4,0.6,9.1,3.3c13.1,13.5,29.1,21.3,47.9,23.3c5.4,0.6,10.9,0,16.3,1.6
		c24.3,7,46.2,18.9,66.8,33.2c27.6,19.1,57.7,29.3,91.4,28.7c3.5-0.1,7.2-0.1,8.4-3.8c1.3-4.2,4.4-6.5,7.2-9.3
		C668.9,748.6,671.8,746.4,673,742.9z M570.7,555.7L570.7,555.7c1.2,2.4,0,4.8-0.3,7.2c-3.1,22.9-1.1,45.2,8.3,66.6
		c1.4,3.3,2.8,4.7,6.6,3.1c3.3-1.4,7-2,10.6-2.7c21.5-3.8,42.5-0.5,63.1,5.5c1.5,0.4,3.5,1.8,4.6,0.8c1.5-1.4-0.1-3.4-0.5-5.1
		c-5.2-18.7-10.5-37.3-12.7-56.9c-2.6-22.9-12.5-42.8-31.5-57c-8.8-6.6-19.1-8.8-29.7-7.4c-14.4,1.9-26,10-36.8,19.1
		c-18.2,15.4-32.8,33.8-45.1,54.2c-8.4,13.9-15.5,28.3-21.7,43.2c-1.1,2.6-0.9,4.2,1.3,6.1c6.7,5.7,13.3,11.6,19.9,17.5
		c1.5,1.4,3.2,2.1,5.3,2.4c16.1,1.8,32.1,3.7,48.1,5.7c3.1,0.4,3.8-0.4,4.1-3.5c0.9-12-2.1-23.3-4.7-34.9
		C554.4,596.8,556.4,575.1,570.7,555.7z M112.1,484.6c-12.4-0.2-21.8,5.3-28.7,15.2c-7.9,11.3-9.9,24.1-8.5,37.5
		c2.2,19.8,10.3,36.4,26.5,48.4c21.3,16,47.7,8.9,57.2-16c9.3-24.3,3.5-46.9-12.2-66.8C137.8,492.2,126.7,484.9,112.1,484.6z
		 M147.2,468.3c0.4,2,1.7,2.2,2.7,2.7c11.8,6.3,21,15,25.8,27.8c2.6,6.9,2.7,7.2,9.5,3.7c12.6-6.4,24.9-13.2,37.4-19.6
		c21.8-11.1,43.7-21.9,65.5-32.8c14.1-7.1,28.2-14.4,42.3-21.5c4.5-2.3,4.7-2.6,0.8-5.9c-8.4-7.1-16.8-14.1-25.2-21.2
		c-2.1-1.8-4-1.9-6.4-0.8c-25.7,11.4-51.4,22.7-77.2,34.1c-17,7.5-34.1,15.1-51.1,22.6C163.3,461,155.2,464.7,147.2,468.3z
		 M657.7,324.5c-1.7,0.9-1.5,2.2-1.7,3.3c-3.2,17.2-6.4,34.4-9.7,51.6c-10.7,55.7-7.9,110.7,8.2,165c1.3,4.5,2.4,9,3.2,13.6
		c3.8,22.6,20,33.8,39.1,37.2c8.3,1.5,15.6-0.8,21.6-6.6c7.3-7.1,12.7-15.4,13.7-26c2.7-27.8-0.7-55.2-3.9-82.7
		c-0.5-4.3-3-1.7-4-0.8c-10.4,8.9-21.4,8.8-33.1,2.9c-1.3-0.7-2.8-1.1-4.3-1.3c-3.1-0.6-4.2-2.4-4.7-5.4
		c-5.7-35.5-11.4-71-17.2-106.6C662.6,354.1,660.2,339.4,657.7,324.5z M649.1,319.1c-1.6-0.5-2.4,0.1-3.2,0.6
		c-17,9.6-34,19.1-51,28.6c-2,1.1-3,2.3-2.3,4.7c0.5,1.7,0.6,3.6,0.9,5.4c3.8,24.7,8.4,49.3,8.2,74.4c0,7.2-0.5,14.3-2.9,21.2
		c-1.8,5.4-5.5,8.5-11.2,9.3c-6.2,0.9-11.5-1.3-16.3-4.9c-8.4-6.2-13.9-14.7-18.4-23.9c-7.3-14.8-10.1-30.5-10.4-46.9
		c-0.2-9.5-0.4-9.4-9-4.9c-3.5,1.9-4.7,3.9-4.4,8.1c0.6,8.7,3.7,16.9,4.3,25.6c0.6,9-1.3,16.9-8.6,22.8c-4.9,4-3.2,13.7,2.8,16.3
		c6.6,2.8,11.5,7.2,13.7,14.3c1.2,3.8,3.7,4.6,7.4,3.5c10.2-2.9,20.7-3.5,31.2-2.9c22.7,1.4,39.6,13.3,53.4,30.5
		c1,1.3,1.6,3.2,4,3.8c-0.4-2.2-0.6-4-1-5.8c-3.8-19.4-5.4-38.9-4.8-58.6c0.8-29.1,5.5-57.7,10.9-86.2
		C644.6,342.5,646.9,330.8,649.1,319.1z M593.2,427.1c-0.8-21.9-4.4-45.7-8-69.6c-0.4-2.7-1.3-2.9-3.5-1.7
		c-4.9,2.9-9.9,5.5-14.8,8.4c-5.4,3.3-13.3,4.7-15.6,9.9c-2.4,5.2-0.3,12.4-0.2,18.7c0.5,16.7,5,32.2,13.9,46.3
		c3.8,6,8.5,11.1,14.6,14.8c6.2,3.8,10.4,2,12.2-5.1C593.5,442.4,593.2,435.9,593.2,427.1z M554.4,776.1c-0.1-0.5-0.3-0.9-0.4-1.4
		c-7.6,0-15.2,0-22.8,0c-17.2-0.1-34.3-0.3-51.5-0.4c-1.4,0-4.6-1-2.6,2.5c9,16.4,27.1,27.5,45.8,21.3
		C535.7,793.8,545.5,785.6,554.4,776.1z M493.5,838.2c0.5-2.5-1-3.1-1.8-4c-4.4-5.2-8.8-10.4-12.2-16.4
		c-16.8-29.5-20.5-61.9-20.2-95c0-4.3,0.4-8.6,0.7-12.9c0.3-4.6-3.5-5.3-6.2-5.7c-3.4-0.5-2.7,3.1-2.7,5.2
		c-0.2,13.3-0.7,26.6,0.8,39.9c2.3,21.7,7.1,42.7,17.9,61.9C475.6,821.7,482.9,831.1,493.5,838.2z M286.3,526.3
		c-5.4,2.5-9.7,4.6-14.1,6.6c-1.1,0.5-1.9,1.3-2,2.6c-0.6,10.4-0.8,20.7,4.8,30c5.1,8.4,16.8,13.4,25.2,10.7
		C284.5,563.2,282,546.2,286.3,526.3z M473.6,717.1c2.9,7.9,5.3,14.4,7.7,20.8c3.6,9.5,3.6,9.6,13.6,9.1c10.7-0.5,21.3-1,32-1.5
		C508.9,737.4,490.8,729.7,473.6,717.1z M258.9,556.8c3.9,1,4-0.5,3.3-3c-0.9-3.2-1.6-6.4-2.2-9.7c-0.5-3-1.5-3.6-4.2-1.8
		c-4.5,3.1-9.2,5.9-13.9,8.8c-0.9,0.5-1.9,1-1.6,2.2c0.3,1.2,1.5,1,2.5,1.2C248.5,555.3,254,556.1,258.9,556.8z M432.5,593.3
		c-3.9-0.6-7.8-1.6-11.5-3.1c-3.2-1.3-3.9,0.3-3.4,3c0.7,3.5,2.5,6.6,6.1,7C428.3,600.7,431.5,598.2,432.5,593.3z M740.4,426
		c2.1-5.6,1.6-11.1-1-16.4c-0.9-1.9-2.3-3.4-4.5-3.4c-1.9,0-3.6,0.6-1.9,2.9C736.8,414.1,738.6,420,740.4,426z M730.1,429
		c1.3-3.4,1.1-5.7,1-7.9c-0.1-4.2-1.4-8.1-4.3-11.3c-1-1.1-2.7-1.9-4-1c-1.7,1.1-0.8,2.7,0.1,3.9C726.2,417.3,728.1,422.5,730.1,429
		z M748.9,423.5c2.1-6.6,1.8-11.5-1-16.3c-0.9-1.5-2.3-2.4-4.1-2.4c-1.9,0.1-3,0.8-1.5,2.7C745.7,411.8,747.3,416.9,748.9,423.5z
		 M483.3,837.8c0.2,0.2,0.3,0.6,0.5,0.7c0.2,0.1,0.6-0.2,0.8-0.3c-0.2-0.3-0.4-0.7-0.7-1C483.7,837.5,483.5,837.6,483.3,837.8z"/>
	<path class="st0" d="M583.5,158.9c8.3-19.8,19.1-38.1,35.2-52.7c2.4-2.1,3.2-4,2.6-7.2c-2.2-11.8-3.8-23.7-5.9-35.5
		c-0.4-2.6,0.1-3.9,2.5-5.1c9.3-4.5,18.6-9,27.7-13.8c3.6-1.9,6.8-0.4,10.2,0.2c11.7,2.2,11.7,2.2,13.5,13.9
		c0.8,5.3,2,10.5,2.3,15.8c0.2,5.1,3.4,5.4,6.6,4.6c10.5-2.7,21-1.2,31.4,0.1c5.5,0.7,8.7,4.7,10.1,9.8c1.5,5.6,0.9,11.1-3.8,15.1
		c-2.2,1.9-4,3.8-5.4,6.3c-1.7,3-4.3,5.3-7.6,6.2c-8.1,2-14.3,7.3-21.4,11.2c-2.4,1.3-1.3,3.1-1.1,4.7c1.4,9.7,3,19.4,4.4,29.1
		c1.9,13.9,3.6,27.8,5.4,41.6c0.3,2.1,0.9,4.1,1.4,6.6c6.6-3.7,13.6-4.1,20.8-2.6c22.3,4.4,34.3,27.1,26.1,49.5
		c-3.3,9.1-9.2,16.1-17.7,20.9c-4.1,2.3-8.5,4.3-12.7,6.4c-3.5-10.8-3.5-22.1-5.2-33.2c-1.1-7.4,0.2-15.1-4.3-22.1
		c-6.1-9.5-12.6-18.6-20.2-26.8c-5.5-5.9-11.7-11.2-17.6-16.7c-4.5-4.2-9-4.3-14.5-1.2c-3.6,2-5.7,6-9.8,7.2
		c-4.3-25.7-8.6-51.4-12.9-77.2c-9.5,6.3-27.6,33.3-33.7,50C586.2,164.2,587.5,158.3,583.5,158.9z"/>
	<path class="st1" d="M689.9,723.9c1-6.9,1.9-13.8,2.9-20.8c0.9-0.5,1.8-1,2.6-1.5c36.8-25.5,73.7-51,110.6-76.3
		c2.9-2,4.1-4.1,4.1-7.7c0.6-60.3,1.4-120.5,2.2-180.8c0-3.2-1-5.1-3.6-6.9c-19.7-13.9-39.3-28.1-59-42.1
		c-11.3-8-22.2-16.5-33.9-23.8c-0.3,0-0.6-0.1-0.9-0.3c1.1-2,0-3.9-0.3-5.7c-0.8-5.2-2.4-10.2-1.7-15.5c15.5,11,31,21.9,46.4,32.9
		c21.7,15.5,43.3,31.1,65,46.5c2.8,2,3.8,4,3.8,7.3c-0.9,65.8-1.7,131.5-2.4,197.3c0,2.9-0.8,4.9-3.3,6.6
		c-43.5,29.9-86.9,60-130.3,89.9C691.5,723.4,690.6,723.6,689.9,723.9z"/>
	<path class="st1" d="M136.1,454.4c-5.1,2.7-10.2,5.2-15.8,6.7c0.1-12.7,0.2-25.3,0.1-38c0-3.2,2.1-4.3,4.1-5.7
		c47-32.5,94-65,141-97.5c20.1-13.9,40.3-27.8,60.4-41.8c2.1-1.5,4.2-2.4,6.9-2.4c67.8,0.5,135.6,0.9,203.4,1.3c0.7,0,1.3,0.2,2,0.2
		c-11.3,5.5-22.8,10.8-34.7,15.1c-8.4-0.1-16.9-0.3-25.3-0.2c-2.7,0-5.6-1-8.1,0.7c-7.1,0.1-14.1-1.3-21.2-0.6
		c-2.3-0.1-4.6-0.2-7-0.2c-34.1-0.2-68.3-0.4-102.4-0.7c-3.7,0-6.7,1.1-9.7,3.2c-35.6,24.7-71.2,49.3-106.8,73.9
		c-27.7,19.1-55.3,38.2-83,57.4c-2,1.4-4.2,2.4-4.1,5.6C136.3,439.1,136.1,446.7,136.1,454.4z"/>
	<path class="st1" d="M400.6,757.9c2,5.1,2.8,10.4,4,15.7c-20.8,0-41.7-0.8-62.4,0.2c-13.5,0.6-23.9-3.7-34.6-11.5
		C246,717.6,183.9,673.5,122,629.2c-2.7-1.9-4.1-3.8-3.8-7.3c0.4-5.5,0.2-11,0.3-16.5c5.2,0.6,10.4,0.6,15.6,0
		c0,3.2,0.1,6.3-0.1,9.5c-0.2,2.7,0.9,4.2,3,5.7c63,45,125.9,90.1,188.9,135.1c1.5,1.1,2.9,2.1,4.9,2.1
		C354,757.8,377.3,757.9,400.6,757.9z"/>
	<path class="st0" d="M636.4,191.3c4.1-1.2,6.2-5.2,9.8-7.2c5.5-3,10-3,14.5,1.2c5.9,5.5,12.1,10.8,17.6,16.7
		c7.6,8.2,14.2,17.3,20.2,26.8c4.5,7,3.2,14.7,4.3,22.1c1.7,11.1,1.6,22.4,5.2,33.2c-1.1,1.9-3.1,2.3-5,3c-0.9-1.1-1.7-2.5-2.9-3.4
		c-8.5-6.5-13.4-15.9-19.3-24.4c-9.4-13.6-17.7-28-26.7-41.9c-3.3-5.2-8.1-8.2-14.7-7.3C638.1,204,637,197.7,636.4,191.3z"/>
	<path class="st0" d="M639.5,210.2c6.5-0.9,11.3,2.1,14.7,7.3c9,13.9,17.3,28.2,26.7,41.9c5.8,8.5,10.8,17.9,19.3,24.4
		c1.1,0.9,1.9,2.3,2.9,3.4c0,1.3,0,2.6-0.1,3.9c-0.1,0.8-0.1,1.6,0.8,2c1.5,1.4,1.1,3.3,1.1,5c-4.1,2.4-7.8,0.3-11.5-1
		c-9.3-3.4-19.6-3.9-27.9-9.8c-9.5-6.6-19-13.1-23.8-24.5c-4.7-11.2-5.8-11.3-17.4-6c-1.5,0.7-3.2,0.8-4.3,2.3
		c-0.6,0-1.3,0.1-1.9,0.1c0.5-6.9-1.8-14.1,2.2-20.6c4,3.5,7-1,10.6-1.2c-0.2,2.3,1.7,3.9,2.4,5.9c1.8,4.8,3.8,5,7.6,1.5
		c5.3-4.8,5.5-11.3,6.2-17.7c0.7-6,0.1-6.8-6-7.9C640,216.2,639.7,213.2,639.5,210.2z"/>
	<path class="st0" d="M712.9,342.4c-0.6,5.3,0.9,10.4,1.7,15.5c0.3,1.9,1.4,3.8,0.3,5.7c-0.3,0.2-0.6,0.2-0.9,0.2
		c-0.3-3.8-2.6-5.8-6-7c-0.1-1.2,0.3-2.6-1.5-3c-0.1-1.3-0.2-2.7-0.4-4c1.2-1,0.5-1.6-0.5-2.1c-0.5-3.3-1-6.6-1.5-9.9
		c1.1-0.9,0.6-1.5-0.4-2c-0.7-1.6-0.7-3.2-0.7-4.9c1-3.5,3.7-3.2,6.4-3c0.1,0.7,0.2,1.3,0.3,2c-1.1,0.8-0.8,1.4,0.3,2
		C711.6,335.3,710.3,339.4,712.9,342.4z"/>
	<path class="st1" d="M602.7,774.8c0.8-1.5,1.6-2.9,2.4-4.4c1.3-2.8,3.1-3.8,6.4-2.8c3.8,1.2,7.7,1.9,11.6,2.8
		C617.3,776.8,609.8,775.1,602.7,774.8z"/>
	<path class="st0" d="M709.5,328.1c-2.7-0.2-5.4-0.5-6.4,3c-1.7-4.5-1.8-9.2-2.3-13.9c2.5-0.6,4.7,1,7.1,0.9
		C709,321.3,709.3,324.7,709.5,328.1z"/>
	<path class="st0" d="M583.5,158.9c4-0.6,2.7,5.3,6.4,5.2c-0.1,2.7-2.8,4.3-3,7c-2.3-2.6-1.4-6.9-4.8-9
		C582.2,160.9,582.7,159.8,583.5,158.9z"/>
	<path class="st0" d="M703.7,293c-0.9-0.4-0.9-1.2-0.8-2C703.1,291.7,704.6,291.9,703.7,293z"/>
	<path class="st2" d="M710,332c-1-0.5-1.4-1.1-0.3-2C710.2,330.7,710.3,331.3,710,332z"/>
	<path class="st1" d="M689,724.8c0.1-0.5,0.2-1,1-0.9C689.6,724.2,689.3,724.5,689,724.8z"/>
	<path class="st3" d="M570.7,555.7c-14.3,19.4-16.3,41.1-11.1,63.8c2.7,11.5,5.6,22.9,4.7,34.9c-0.2,3.1-1,3.9-4.1,3.5
		c-16-2-32.1-3.9-48.1-5.7c-2.1-0.2-3.8-1-5.3-2.4c-6.6-5.9-13.2-11.8-19.9-17.5c-2.1-1.8-2.3-3.5-1.3-6.1
		c6.2-14.9,13.3-29.3,21.7-43.2c12.3-20.4,26.9-38.9,45.1-54.2c10.8-9.1,22.4-17.2,36.8-19.1c10.7-1.4,21,0.8,29.7,7.4
		c19,14.2,28.9,34.2,31.5,57c2.2,19.5,7.5,38.1,12.7,56.9c0.5,1.7,2,3.7,0.5,5.1c-1.1,1.1-3.1-0.3-4.6-0.8
		c-20.7-6-41.6-9.3-63.1-5.5c-3.6,0.6-7.3,1.3-10.6,2.7c-3.8,1.6-5.2,0.2-6.6-3.1c-9.4-21.4-11.4-43.6-8.3-66.6
		C570.8,560.5,571.9,558.1,570.7,555.7c0.1,0,0.2,0,0.4,0.1C571,555.7,570.9,555.7,570.7,555.7z"/>
	<path class="st4" d="M449.4,517.2c3.4,7.4,6.7,14.9,10.2,22.2c1.2,2.4,1.1,4.1-0.4,6.3c-7.8,11.6-15,23.6-20.5,36.5
		c-1.7,4.1-4,5.6-8.3,3.9c-4-1.6-8.4-1.6-12.4-3.6c-2.9-1.5-4.6,0.9-5.7,3.3c-2.2,5-1.7,10,1.1,15.3c-10.1,0.1-14.1,5.8-15,14.4
		c-0.2,1.7-1.4,2.6-2.4,3.6c-1.8,1.8-3.1,3.9-3.3,6.5c-1.1,9.7-4.9,18.9-4.9,29c-21.6-40.6-29.8-83.8-24.7-130.2
		c-2.5,2.4-2.9,5.1-3.9,7.4c-3.6,8.1-7.2,16.1-10.5,24.3c-1.4,3.6-3,3.6-5.9,1.8c-5.9-3.7-10.4-8.7-14.6-14.2c-1.5-2-2.9-4-4.6-6.1
		c-0.4,4.4,1.3,10.8,5.6,20.2c2.9,6.3,6.3,12.4,9.9,19.2c-11.2-2.9-22.3-4.8-32.5-8.8c-6.6-2.5-9.9-9.6-12-16.5
		c-2.7-9-1.9-18.1-0.2-27.2c0.4-1.9,1.6-2.8,3.1-3.6c26.1-14.3,52.3-28.6,78.4-42.9c1.7-0.9,3.4-1.1,5.3-1.1c3,0.1,5.9,0.8,8.9,0.1
		c2.6,0.9,5.3,1.1,8,0.7c2.9,0.4,5.9,0.7,8.8,1.1s4.8-0.2,7-2.8c3.1-3.5,5.9-8,11.1-9.3c0.6,0.2,1,0,1.1-0.6
		c0.3-0.2,0.6-0.3,0.9-0.5c2.2-0.4,4.3-0.7,5.5,1.8c0.9,3.9,1.5,7.9,3.2,11.5c-0.3,1,0,1.9,0.8,2.5c1,2.8,2.1,5.7,3.1,8.5
		c-0.3,0.8-0.1,1.4,0.5,1.9c0,1.4,0.2,2.9,1,4.1C442.1,503.7,445.9,510.4,449.4,517.2z M447.7,528c-0.2-0.4-0.4-0.8-0.7-1.1
		c-3.1-7.9-6.4-15.6-13-21.5c-4.2-3.8-8.7-5.2-14.1-3.6c-6.8,2-10,7.9-14.7,12.9c3.9,1.3,5.4-1.5,7.5-2.7c6.2-3.5,10.5-3.5,16.2,0.6
		c5.1,3.6,8.7,8.6,12.3,13.5c0.3,1.6,1.3,2.5,2.7,3c0.7,0.7,1.4,1.3,2.1,2c0.9,1.6,2.2,2.6,4.5,2.8c-0.3-2.1-1-3.8-2.2-5.3
		C448.3,528.1,448.1,527.9,447.7,528z"/>
	<path class="st3" d="M397,669.9c-1-1.6-1.1-3.5-1.2-5.3c-0.3-5.6,0.5-6.5,6.3-6.8c6.2-0.3,12.3-0.6,18.5-1c1.8-0.1,4.2-0.4,4.3-2.5
		c0.1-2.4-2.3-2.4-4.1-2.5c-5.8-0.5-11.6-1.1-17.4-1.6c-2.5-0.2-5.4,0.1-4.9-3.8c0.4-3.5,1.3-6.9,5.8-6.7c6,0.2,12,0.8,17.9,1.2
		c1.3,0.1,2.7,0.2,4,0.1c1.6-0.2,3.3-1,3.2-2.6c-0.1-1.6-2-1.3-3.3-1.4c-6-0.5-11.9-1-17.9-1.3c-3-0.2-5.7-0.4-5.3-4.6
		c0.3-3.9,1.4-7.1,5.9-7.2c6.8-0.2,13.7,0,20.5-0.1c1.2,0,2.3,0,3.5,0c1.6-0.1,3.3-0.7,3.2-2.5c-0.1-1.8-1.9-1.4-3.2-1.5
		c-6.3-0.4-12.6-0.9-19-1c-3.3-0.1-5.7-0.6-5.5-4.5c0.2-3.7,0.9-7.7,5.3-7.8c11.8-0.2,23.6,0.2,35.5,0.4c2.1,0,3.2,1.6,4.5,2.8
		c17,15.4,34,30.9,51,46.4c2,1.9,4.1,3.1,6.9,3.5c25.7,3.7,51.4,7.3,77.1,11.3c20,3.2,39.2,9.1,57,19c7.2,4,13.6,8.9,19.3,14.9
		c7.8,8.2,10.7,18.2,10.9,29.2c0.1,3.1-0.6,6.3-2.8,8.8c-2.5,0.1-4.9,0.2-7.4,0.5c-12.4,1.6-24.7,2.3-37.1-0.7
		c-23.2-5.7-45.3-14.3-66.9-24.1c-17.3-7.8-34.3-16.3-51-25.3c-9.9-5.4-19-11.2-32.3-9.1c-15.7,2.5-30-5.6-42.9-14.5
		c-3.7-2.6-7.3-3-11.7-2.4C414.9,668.6,406,669.1,397,669.9z"/>
	<path class="st5" d="M400.6,757.9c-23.3,0-46.6-0.1-69.9-0.1c-2,0-3.4-1-4.9-2.1c-63-45.1-125.9-90.1-188.9-135.1
		c-2.1-1.5-3.2-3.1-3-5.7c0.3-3.1,0.1-6.3,0.1-9.5c5.8-1,11-3.6,16.1-6.5c23.6-13.4,47.4-26.5,70.8-40.1c4.6-2.7,8.3-2.4,12.4-0.3
		c9.8,5,20.1,7.9,31,8.7c1.7,0.1,3,0.4,4.3,1.9c10.8,13.5,20.1,16.2,36.2,10c4.2-1.6,7.4-1.2,11.2,0.7c8,4.1,16.2,7.8,24.4,11.6
		c2.6,1.2,4.2,2.8,5.3,5.5c12.3,29.5,25.1,58.8,36.9,88.4c5.6,14,7.6,29.3,11.4,43.9C396.3,738.8,398.4,748.4,400.6,757.9z
		 M148.1,608.9c-1.8,0.3-4-1.9-5.5,0.4c-0.8,1.3-0.8,3-0.1,4.3c0.6,1.1,1.8,2,2.8,2.7c12.7,9.1,25.4,18.2,38.2,27.3
		c1.9,1.4,3.9,2.2,6.4,2.6c25,3.7,50,7.5,75,11.2c34,5.1,68.1,10.3,102.1,15.3c1.3,0.2,3.7,1.5,4-1.1c0.2-1.8-0.9-3.5-3.1-3.9
		c-1.8-0.4-3.5-1-5.3-1.5c-50.5-13.5-100.9-26.9-151.4-40.4c-19.7-5.3-39.4-10.7-59.1-16c0-0.6,0-1.3,0-1.9c7,0.9,13.7,3.2,20.5,4.8
		c59.1,13.7,118.2,27.9,177.2,41.9c4.9,1.2,9.9,2.2,15.1,3.3c-0.6-4.7-2.5-6.9-6.6-8.4c-53.6-19.1-107.3-38-160.6-57.9
		c-11-4.1-20.1-4.9-29.3,2.8c-2.3,1.9-5.2,2.9-7.8,4.5c-4.2,2.6-9.1,4.1-12.6,7.9C148.1,607.5,148.1,608.2,148.1,608.9z
		 M186.3,584.5c3.1,1.1,5.1,1.8,7.2,2.5c52.4,17.1,104.7,34.3,157.1,51.3c2,0.7,5.2,3.1,6.1,0.9c1-2.4-1-5.7-3.1-7.9
		c-0.6-0.7-1.7-1-2.6-1.4c-43.9-20.1-87.8-40.1-131.7-60.2c-2-0.9-4-1.6-6.2-0.3C204.6,574.2,196.1,579,186.3,584.5z M195.8,651.1
		c-0.1,0.4-0.3,0.7-0.4,1.1c11.8,8.4,23.5,16.8,35.3,25c0.9,0.6,2.2,0.7,3.3,0.7c15.8,1.1,31.5,2,47.3,3.1
		c17.4,1.2,34.8,2.4,52.3,3.6c13.4,0.9,26.9,1.7,40.3,2.4c1.1,0.1,3,0.8,3-1.4c0-1.5-1-2.4-2.5-2.6c-0.7-0.1-1.3-0.2-2-0.3
		c-38.6-6.9-77.2-13.8-115.9-20.8C236.3,658.3,216.1,654.7,195.8,651.1z M241.8,683.8c-0.1,0.4-0.3,0.8-0.4,1.2
		c7.5,5.4,15.1,10.8,22.6,16.2c1.5,1.1,3.2,0.9,4.8,0.8c36.1-0.7,72.2-1.3,108.3-2.1c1.3,0,3.5,0.8,3.7-1.3c0.3-2.5-2.2-2.1-3.7-2.3
		c-8.8-0.9-17.5-1.7-26.3-2.5c-27.1-2.6-54.3-5.1-81.4-7.7C260.2,685.5,251,684.7,241.8,683.8z M349,620.4
		c-1.6-8.8-5.6-14.1-12.9-17.6c-9.3-4.4-18.2-9.8-27-15c-3.2-1.9-6.1-2.3-9.8-1.5c-13.2,2.9-24.8,0.1-33.2-11.3
		c-1.2-1.6-2.6-2.5-4.5-2.7c-10.9-0.9-21.2-4.3-31-8.9c-4-1.9-6.9-0.9-10,2.7C263.4,584.2,305.8,602.2,349,620.4z M275.6,708.3
		c-0.1,0.3-0.3,0.7-0.4,1c5.6,4,11.2,8,16.8,11.9c1.2,0.9,2.6,0.2,3.9,0.1c27.8-2.8,55.6-5.6,83.4-8.5c1.6-0.2,4.4,0.7,4.4-1.9
		c-0.1-2.6-2.8-1.5-4.4-1.8c-0.5-0.1-1,0-1.5,0c-27.5-0.3-54.9-0.6-82.4-0.8C288.8,708.2,282.2,708.3,275.6,708.3z M302.7,727.7
		c-0.1,0.4-0.2,0.8-0.3,1.1c2.7,1.9,5.5,3.6,8,5.8c3,2.7,6.2,3,10,2.2c14-2.8,28.1-5.4,42.2-8c7.2-1.4,14.4-2.7,21.6-4
		c1.1-0.2,2.6-0.2,2.4-1.9c-0.2-1.6-1.7-1.2-2.8-1.2c-0.8,0-1.7,0.1-2.5,0.1c-20.8,1.5-41.5,2.9-62.3,4.4
		C313.6,726.7,308.2,727.2,302.7,727.7z M324.4,743.5c4.6,6.4,10.5,7.2,16.5,5.7c15.5-3.9,30.8-8.3,46.1-12.6
		c1.1-0.3,3.1-0.3,2.4-2.3c-0.5-1.5-1.9-0.9-3-0.7c-7.2,1.1-14.4,2.3-21.6,3.4C351.6,739.1,338.4,741.3,324.4,743.5z M375.3,749.1
		c5.4,0.4,10.8,1.7,15.8-0.9c0.9-0.5,1.9-0.9,1.4-2.2c-0.3-1-1.2-1-2.1-0.8C385.4,746.5,380.4,747.8,375.3,749.1z"/>
	<path class="st5" d="M715.9,364c11.7,7.3,22.6,15.8,33.9,23.8c19.7,14,39.2,28.1,59,42.1c2.6,1.8,3.6,3.7,3.6,6.9
		c-0.8,60.3-1.6,120.5-2.2,180.8c0,3.6-1.2,5.7-4.1,7.7c-36.9,25.4-73.7,50.9-110.6,76.3c-0.8,0.6-1.7,1-2.6,1.5
		c-0.8-11-1.3-21.9-4.7-32.5c-2.2-7-4.9-13.8-9.2-19.8c-0.9-1.2-1.6-2.5-1.8-4.1c-1.9-20.1-7.9-39.1-15.4-57.7
		c-0.4-0.9-1-1.8-0.3-3.1c9.1,9.4,20.3,14.9,33,17.3c12,2.3,22.4-1,31.1-9.7c9.7-9.7,14.8-21.4,15.6-35.2
		c1.4-24.6-0.9-48.9-3.7-73.3c-1.5-12.9-3.3-25.8-5.2-38.6c-0.5-3.6,0.7-5.2,3.9-6.8c4.7-2.4,10.4-2.9,14.3-6.8c3.2-3.3,6-7,9-10.5
		c3.5-4.1,3.3-9.3,0.9-14.1c-2.4-4.8-6.3-6.2-11.7-6.8c-5.7-0.6-11.4-1.5-17.1-0.8c-1.3,0.2-2.7,0-4,0.2c-6.5,0.9-6.5,0.9-7.5-5.9
		c-1.2-8.1-2.6-16.1-3.8-24.2C715.7,368.6,715.1,366.3,715.9,364z M730.9,595.9c2.2,0.4,3.8-1,5.6-1.8c18.9-9.1,37.6-18.6,56.7-27.3
		c6.5-3,10.5-6,9.3-13.8c-0.6-3.5,0.1-7.3,0.4-10.9c0.4-4.4-1.2-4.3-4.3-2.3c-17.4,11.1-34.9,22.1-52.3,33.1c-1.3,0.8-2.5,1.6-3,3.1
		C740.5,583.5,735.6,589.7,730.9,595.9c0,0.2-0.1,0.3-0.1,0.4C730.8,596.2,730.9,596.1,730.9,595.9z M803.9,448.9c0-3-0.1-6,0-9
		c0.2-5.3-4.5-6.1-7.5-8.3c-2.8-2-4.5,0.9-6.1,2.7c-13.4,15.2-27.4,29.9-41.6,44.4c-4.4,4.5-6.9,8.9-5.1,15.4
		c0.9,3.3,0.7,6.9,1.2,10.4c0.2,1.4-0.5,3.5,0.8,4.2c1.8,0.9,2.9-1.2,4.1-2.2c14.9-12.5,29.5-25.4,44.6-37.7
		C800.8,463.4,806.6,458.4,803.9,448.9z M802.1,579.1c0-2.3-0.1-4.7,0-7c0.2-3.5-0.4-4.4-4-2.5c-38.1,19.9-76.2,39.7-114.4,59.4
		c-2.1,1.1-4.5,2-3,5.1c1.6,3.5,3.8,0.7,5.3,0.2c35.3-13.5,70.6-27.1,105.8-40.7C802,589.7,802,589.7,802.1,579.1z M803,466.1
		c-0.6,0.3-1,0.3-1.2,0.5c-18,16.1-36,32.1-54,48.2c-0.9,0.8-1.9,1.5-1.9,2.8c0.3,6.7,0.6,13.3,1,20.9
		c18.7-13.3,36.5-25.9,54.2-38.6c1-0.7,1.8-1.5,1.8-2.8C803,487,803,476.8,803,466.1z M801.9,605.3c0-0.8,0-2.3,0-3.8
		c0-6.2,0-6.2-5.8-3.8c-31.3,13.1-62.7,26.1-94,39.2c-5.7,2.4-11.4,4.7-17,7.1c-1.2,0.5-2.6,1-2.2,2.8c0.4,1.4,1.2,2.4,2.8,2.3
		c1.1-0.1,2.3-0.4,3.4-0.8c34.5-10.1,69-20.1,103.5-30.3C803.8,614.8,801.4,617.5,801.9,605.3z M742,478.1c2.6-0.8,3.6-2.5,4.9-3.7
		c14.5-14.4,28.9-29,43.5-43.3c2-2,1.3-3-0.4-4.2c-6.2-4.4-12.5-8.8-18.7-13.3c-2.6-1.9-3.9-1.3-4.3,1.8
		c-1.7,12.6-10.2,19.8-20.3,25.9c-4.1,2.5-8.3,6-8.2,10.5C738.7,460.3,740.7,469,742,478.1z M802.8,503.6
		c-18.7,14.1-36.4,27.6-54.2,41c-1.1,0.9-1.7,1.9-1.8,3.4c-0.2,4.7-0.5,9.3-0.9,13.9c-0.3,3.4,1,3.2,3.3,1.8
		c16.9-10,33.8-20.1,50.6-30.1c1.4-0.8,2.9-1.6,2.9-3.7C802.8,521.6,802.8,513.2,802.8,503.6z M787.5,627.8
		c-3.1-1.7-5.1-0.5-7.1,0.1c-16,5.1-32,10.2-48,15.4c-13.5,4.3-26.9,8.7-40.3,13.1c-1.4,0.5-3.6,0.4-2.8,3.1c0.7,2.2,2,2.9,4.2,2.4
		c0.5-0.1,1-0.2,1.5-0.3c13.5-2.8,27-5.5,40.5-8.4c7.3-1.5,15.4-1.6,21.7-5C767.7,642.7,777,635,787.5,627.8z M739.8,659.9
		c-15.1,3.5-29.5,6.8-43.9,10.1c-1.9,0.4-3.1,1-2.4,3.3c0.5,2,1.5,2.8,3.5,2.4c2.6-0.4,5.3-0.9,7.9-0.9
		C718.3,674.6,729.8,670.3,739.8,659.9z M724,379.7c-0.4,0.2-0.8,0.5-1.2,0.7c0.7,4.4,1.3,8.8,2,13.2c0.2,1.3,0.7,2.2,2.2,2.1
		c3.5-0.2,7,0.3,10.3-0.8c2.4-0.8,4.1-2.4,1.4-4.6C734,386.6,729,383.2,724,379.7z M703.3,610.2c-9.7-4.1-17.1-0.4-24.3,4.9
		c-2.1,1.6-2.1,3-1.3,5.1c0.5,1.4,1.2,1.8,2.6,1.2C687.9,617.6,695.6,613.9,703.3,610.2z M706.4,683.9c-0.1-0.3-0.2-0.6-0.4-0.9
		c-2.8,0.4-5.7,0.8-8.5,1.1c-1.1,0.1-2,0.6-1.9,1.8c0.1,1.3-0.2,2.8,1.1,3.6c0.9,0.6,1.9-0.1,2.7-0.7
		C701.7,687.2,704,685.5,706.4,683.9z M679.1,604.7c-1.2-1.5-3.1-2.1-4.9-2.7c-0.9-0.3-1.8,0.2-1.6,1.2c0.4,1.6,0.1,4,2.3,4.3
		C676.4,607.6,678,606.5,679.1,604.7z"/>
	<path class="st6" d="M112.1,484.6c14.6,0.2,25.8,7.6,34.3,18.4c15.7,19.9,21.5,42.4,12.2,66.8c-9.5,24.9-35.9,31.9-57.2,16
		c-16.1-12.1-24.3-28.7-26.5-48.4c-1.5-13.5,0.6-26.2,8.5-37.5C90.3,489.9,99.7,484.4,112.1,484.6z"/>
	<path class="st6" d="M147.2,468.3c8-3.6,16.1-7.3,24.2-10.9c17-7.6,34-15.1,51.1-22.6c25.7-11.4,51.4-22.7,77.2-34.1
		c2.4-1.1,4.3-1,6.4,0.8c8.3,7.1,16.8,14.1,25.2,21.2c3.9,3.3,3.7,3.6-0.8,5.9c-14.1,7.1-28.2,14.4-42.3,21.5
		c-21.8,11-43.7,21.8-65.5,32.8c-12.6,6.4-24.9,13.2-37.4,19.6c-6.8,3.5-6.9,3.2-9.5-3.7C171,486,161.7,477.3,150,471
		C148.9,470.5,147.6,470.3,147.2,468.3z"/>
	<path class="st7" d="M397.9,383c3.9-5.9,3.8-11.9,2.4-18.8c-7.3-35.9,19-66,56-64.6c22.4,0.8,40.2,10.5,52.9,29.1
		c4.3,6.2,9.2,10.5,17.3,10.5c3.6,0,7.2,1.1,10.7,2c2.2,0.6,3.8,2.1,3.6,4.7c-0.3,3-2.5,2.9-4.8,3.1c-5.8,0.3-11.5,1.3-17.1,2.8
		c-4.8,0.6-9.1,2.8-13.7,4.1c-17.5,4.9-35,10.2-53.1,12.4c-2.8-0.3-5.6-0.5-8.3-0.9c-3.8-0.6-7.5-0.9-11.2,0.5
		c-7.8,2.9-14.3,7.8-20.9,12.8c-3.1,1.8-5.3,5-8.9,6.1c-2.2,0.7-4.2,4.1-6.3,2.4C394.5,387.5,398.3,385.3,397.9,383z M474.8,348.6
		c5.5-1.1,10.6-2.3,15.8-3.3c2.4-0.5,2-1.7,1.1-3.1c-6.9-11.2-15.4-20.8-27.6-26.3c-12.9-5.9-25.9-4.8-38.7,0.6
		c6.6-0.1,13.3-0.3,19.8,0.5c14.4,1.7,26.1,7.4,32.4,21.4c1.3,2.7,2.4,5.2-1.2,7C475.5,345.8,474.8,346.6,474.8,348.6z M445.3,355.6
		c-3.7-5.1-7.3-9.7-10.6-14.5c-1.5-2.2-3.7-2.8-5.6-1.8c-4.3,2.2-8.4,4.9-12.5,7.4c3.3,1.3,5.8,0,8.2-1.2c2.9-1.4,4.6-0.7,5.9,2.1
		c0.7,1.5,1.7,2.9,2.5,4.3C436.9,358.1,437.1,358.2,445.3,355.6z"/>
	<path class="st8" d="M518.4,372.1c3.3,4.1,5.1,9,5.7,14.1c1.1,9.2,2.5,18.4,4.1,27.5c1.9,10.6-1.4,14.7-11.9,16.5
		c-3.8,0.6-7.5,1.1-11.3,1.7c-5.4-2.4-11,0.5-16.4-0.5c-0.7,0-1.5-0.1-2.2-0.1c-3.4-0.1-6.3-2.3-9.8-2c-4.7-1.3-9.2-3.2-13.6-5.2
		c-1.3-1.2-2.4-3-4-3.5c-3-0.9-5.2-4.9-9.1-2.6c-2.2,0.2-3.3,1.3-3.2,3.6c0.3,4.5,0.2,9,1,13.4c2.7,15.6,12.8,27.2,21.9,39.2
		c0,0.3,0.2,0.5,0.4,0.6c0.7,5,3,9.9,2.1,15c-2.6,14.9-2.8,16.2-16.2,14.1c-0.6-0.1-1.3-0.1-2-0.1c-3.7-1.5-5.2-4.5-5.6-8.3
		c-0.2-1.9-1-3.8-1.5-5.6c-0.2-2-0.3-4-0.5-6c0.2-0.8,0.2-1.5-0.6-2c-0.9-4.2-1.5-8.4-2.7-12.5c-2.6-8.5-2.7-17.6-6.9-25.6
		c0.1-0.1,0.2-0.3,0.2-0.4c-0.1-0.2-0.3-0.5-0.5-0.7c0.2-1.1,0-2.1-0.9-2.9c-0.1-0.6-0.1-1.3-0.2-1.9c-1.8-7.6-1.9-7.6,4.9-11.6
		c0.9-0.5,1.8-1.1,1.4-2.3c-0.3-1.1-1.3-0.7-2.1-0.6c-3.2,0.5-5.7-1-8.3-2.6c-5.2-3.2-7.5-8.6-10.8-13.3c-0.2-5.3-0.4-10.6-0.6-15.8
		c1.2-2.3,2.2-4.8,4.6-6.2c7.4-0.7,12.1,4,16.4,8.7c2.8,3.1,5.9,2.2,8.7,1.6c3.2-0.7,0.7-3.3,0.6-5c-0.1-2-0.3-4,0.6-5.9
		c1.2-2.3,1.1-4.6-0.2-6.7c-2.2-3.5-0.8-5.1,2.7-5.8c3.3-0.2,6.7-0.1,9.9-0.6c3.7-0.5,5.2,0.5,3.5,4.3c2.7,0.6,5-1.1,7.6,0.3
		c7.1,4,11,3.1,16.1-2.7c0.7-0.1,1.4-0.1,2-0.2c7.1,2.2,3.1-2.6,3.1-4.9c0.2-0.4,0.5-0.7,0.7-1.1c1.2-0.9,2.6-0.9,3.9-1
		c0.4-0.1,0.7-0.2,1.1-0.3c2.7-1.6,3.8-0.1,4.8,2.2c2.2,5.2,5,6,10.2,3.1C516.8,372,517.6,372.1,518.4,372.1z M513.7,388.1
		c0.4-0.9,0.3-1.6-0.7-2c-1.7-1.6-3.3,0.1-4.9,0.1c-8.4-2.9-11.3,5.6-18.1,7.7c2.1,1.5,3.6,2.5,5,1.7c3.9-2.1,7.3-1.3,10.8,0.8
		c1.6,1,2.9,0.6,3.4-1.4c0.3,0,0.5-0.2,0.7-0.4c1.2,0.2,2.1-0.1,2.7-1.1C514.3,391.9,514.2,390,513.7,388.1z M494.5,407.6
		c-0.3,0-0.7,0-0.9,0.1c-1.7,1-4.5,0.3-4.8,3.2c-0.1,0.5,0.3,1.6,0.6,1.7c2.3,0.5,3.9-1.1,5.5-2.4c8.1-2.1,16.5-2.5,24.3-6
		c-0.2-0.7-1.1-1.1-2-1.4C508.6,399.8,501.3,402.3,494.5,407.6z M496.3,421.4c7.4-2.7,15.3-0.2,21.7-4.9c0.7-0.5,2.9,1.1,2.4-1.8
		c-0.4-2.1-1.1-2.8-3.3-2c-4.9,1.6-9.9,2.9-15,3.2C498.6,416.1,496.9,417.7,496.3,421.4z"/>
	<path class="st9" d="M657.7,324.5c2.4,14.9,4.8,29.6,7.2,44.3c5.8,35.5,11.5,71,17.2,106.6c0.5,3,1.7,4.8,4.7,5.4
		c1.5,0.3,3,0.7,4.3,1.3c11.6,5.9,22.7,6,33.1-2.9c1.1-0.9,3.5-3.5,4,0.8c3.2,27.5,6.6,54.9,3.9,82.7c-1,10.5-6.3,18.8-13.7,26
		c-6,5.8-13.4,8.1-21.6,6.6c-19.1-3.4-35.2-14.7-39.1-37.2c-0.8-4.6-1.9-9.2-3.2-13.6c-16.2-54.3-18.9-109.3-8.2-165
		c3.3-17.2,6.4-34.4,9.7-51.6C656.3,326.7,656.1,325.4,657.7,324.5z M663.8,557.2c1-0.9,1.8-1.5,2.5-2.2
		c18.7-18.7,37.4-37.4,56.1-56.2c0.5-0.5,1-0.9,1.4-1.4c2.1-3.6,0.8-7.5-0.5-10.4c-0.9-2-3.8,1.2-5.7,2c-2.9,1.2-5.6,4.6-8.4,3.8
		c-4.7-1.3-6.3,1.6-8.4,4.2c-11.6,14.6-23,29.4-35,43.6C661.3,546,660.2,550.8,663.8,557.2z M725.8,505.1c-2.1,0-2.7,1.1-3.5,1.9
		c-15,15.8-30,31.7-44.9,47.5c-3.3,3.5-6.6,7-9.9,10.5c-2.8,2.9,0.2,4.9,1.4,6.9c1.3,2.3,2.8,0.6,4-0.4
		c17.3-14.6,34.5-29.2,51.8-43.9c1.6-1.4,2.7-2.7,2.5-5.1C726.5,516.9,726.2,511.2,725.8,505.1z M648.3,486.8
		c8.1-13.8,15.5-26.4,22.9-38.9c0.6-1,0.9-2.1,0.7-3.3c-1.7-10.5-3.4-21.1-5.1-31.6c-7.7,15-14.5,30.1-21.2,45.3
		c-0.3,0.6-0.4,1.3-0.3,1.9C645.9,468.5,646.2,477,648.3,486.8z M644.9,443.7c2.5-1.4,2.7-3.2,3.4-4.6c4.5-9.1,8.6-18.4,13.3-27.4
		c2.7-5.1,3.9-9.9,2.5-15.7c-1.7-7.4-2.6-15.1-3.8-22.6c-0.9-5.2-1.7-10.4-2.6-15.6c-0.5,0-1.1,0-1.6,0
		C649.6,385.8,646.1,414.3,644.9,443.7z M654.9,528.3c1.1,2.3,0.8,6.9,3.8,8.3c2,1,3.4-3.4,5.4-5.1c0.4-0.3,0.7-0.7,1-1.1
		c10.4-12.3,20.7-24.7,31.2-37c2.2-2.6,2-3.8-1.3-4.6c-3.1-0.8-6.1-1.7-9-2.9c-2.9-1.2-4.5-0.3-6.1,2.2
		c-7.6,11.7-15.5,23.3-23.2,34.9C655.7,524.3,654.6,525.6,654.9,528.3z M727.9,532.9c-10.4,9.3-19.6,17.5-28.8,25.7
		c-7,6.2-13.9,12.4-20.8,18.7c-1,0.9-3.6,2-1.6,3.8c2.2,2.1,4.5,4.4,8.2,1.8c13.4-9.7,26.8-19.1,40.3-28.7c1.4-1,2.7-1.9,2.7-3.9
		C727.9,545,727.9,539.7,727.9,532.9z M673.8,455.9c-0.4-0.1-0.7-0.1-1.1-0.2c-6.3,11.5-12,23.4-19.2,34.3
		c-5.7,8.7-1.3,16.3-0.4,24.5c8.2-10.7,15.9-21.5,23.6-32.3c0.8-1.1,0.9-2.4,0.7-3.8C676.1,470.9,675,463.4,673.8,455.9z
		 M726.6,561.6c-1.9,1.2-3.3,2-4.5,3c-9,6.8-18.1,13.6-27.1,20.5c-1.1,0.9-3.2,1.5-2.7,3.1c0.5,1.7,2.7,1.5,4.3,1.8
		C709.5,592.9,726.6,576.9,726.6,561.6z"/>
	<path class="st9" d="M136.1,454.4c0-7.7,0.2-15.3-0.1-23c-0.1-3.3,2.1-4.3,4.1-5.6c27.7-19.1,55.3-38.3,83-57.4
		c35.6-24.6,71.2-49.2,106.8-73.9c3-2.1,5.9-3.2,9.7-3.2c34.1,0.3,68.3,0.5,102.4,0.7c2.3,0,4.6,0.2,7,0.2
		c-8.3,1.7-16.6,3.3-24.8,5.7c-20,5.9-30.1,19.8-32.9,39.7c-0.5,3.6-1.7,5.3-4.9,7.1c-6.2,3.4-12.1,3.8-18.5,0.9
		c-3.3-1.5-6.9-2.4-10.4-3.4c-2.7-0.8-5.9-2-8.3-0.5c-6.2,3.7-13.9,1.7-19.9,5.8c-0.9,0.6-1.9,0.4-2.9,0.2c-1-0.3-2.3-0.8-2.9-0.4
		c-8.2,5.1-18.7,2.3-26.6,9.9c-24,23-51.9,41.2-78.5,60.9c-1.2,0.9-2.5,1.6-3.9,2.2c-25.3,11.2-50.6,22.3-75.9,33.4
		C137.7,454,136.9,454.1,136.1,454.4z M178.9,428.3c1,0.9,2.1,0.9,3.2,0.4c10.2-4.5,20.4-9,30.6-13.5c2.5-1.1,2.1-2.4,0.5-4.2
		c-2.4-2.7-5.8-4.5-7.2-8.1c3.3,1.7,5.6,4.6,8.2,7.1c1.9,1.8,3.3,2.2,5.5,0.5c7.4-5.6,14.9-11.1,22.4-16.5c2-1.4,2-2.5,0.5-4.3
		c-2-2.5-5.3-4.1-5.7-7.8c2.1,2.1,4.4,4.1,6.3,6.4c1.9,2.2,3.6,2.4,5.9,0.6c6.6-5,13.3-10,20.1-14.8c2.9-2.1,3.2-3.9,0.9-6.9
		c-3-3.9-6.8-7.3-8.2-12.3c3.3,4,6.7,7.8,9.8,11.9c1.9,2.6,3.3,2.5,5.5,0.4c3.8-3.5,7.8-6.7,11.8-10.1c11.6-9.7,11.6-9.7,2.8-22.4
		c-1.4-2-2.5-2.2-4.4-0.8c-8,5.7-16.1,11.2-24.2,16.8c-1.7,1.2-2.1,2.4-1.2,4.2c-2.3-1.4-4.2-0.6-6.3,0.8
		c-6.1,4.4-12.2,8.6-18.4,12.8c-7,4.8-7,4.8-1.7,11.4c0.2,0.3,0.3,0.6,0.4,0.9c-2.6-0.4-3.5-2.9-5.2-4.4c-1.3-1.1-2.2-2.3-4.2-0.9
		c-8.3,6-16.7,11.9-25.2,17.7c-1.8,1.2-2.5,2.5-1.5,4.5c-1.3-1.4-2.7-1.7-4.4-0.5c-9.6,6.8-19.2,13.5-28.7,20.3
		c-5.4,3.6-10.8,7.1-16.2,10.8c-7.1,4.8-8,7.2-5.7,16.4c10.7-4.7,21.3-9.4,31.9-14C178.2,430.4,178.9,429.6,178.9,428.3z
		 M358.1,302.1c-1.4-0.7-2.3-2.2-4.3-2.1c-5.1,0.1-10.4-0.9-15.3,0.2c-6.5,1.4-11.3,6.4-16.3,10.6c-0.4,0.4-0.1,1.6-0.2,2.4
		c-1.7-2.1-3.2-0.7-4.7,0.3c-7.7,5.3-15.3,10.7-23,15.8c-2.8,1.9-2.8,3.5-0.9,6c2.2,2.9,4.1,6,6.1,9.1c1.3,2.1,2.4,2.6,5.2,1.9
		c5.3-1.5,11-1.7,16.2-4c2.8-1.2,6.1,0.1,9.3-1.1c3.5-1.3,4.8-2.6,2.8-6.4c-3.9-7.2-7.3-14.6-10.9-21.8c5.9,7,9.4,15.5,13.6,23.5
		c1.5,2.9,2.6,4,5.5,2.5c6.8-3.8,13.6-3.3,20.7-0.8c3.5,1.2,6.9,3,11.3,2.7c-2.3-5.6-4.5-10.7-6.4-16s-5.2-10-5.6-15.8
		c5.3,9.4,8.8,19.6,13.6,29.3c0.8,1.6,0.8,5,3.2,4c3-1.1,7.5-0.9,8.1-5.4c1.4-9.7,4.8-18.5,10.3-26.7c2.7-4-0.9-10.1-5.7-10.1
		c-9.5-0.1-18.9-0.1-28.4-0.1C360.6,300.1,358.3,299,358.1,302.1z M406.4,300.2c-2.9,0-4.5-0.1-6.1,0c-1.2,0.1-3.1-0.6-3.2,1.3
		c0,1.5,0.5,3.5,1.5,4.6c1.3,1.3,2.1-0.8,3-1.5C403,303.5,404.1,302.3,406.4,300.2z"/>
	<path class="st7" d="M397,669.9c8.9-0.8,17.9-1.3,26.7-2.5c4.4-0.6,8-0.2,11.7,2.4c12.9,9,27.2,17.1,42.9,14.5
		c13.2-2.1,22.3,3.7,32.3,9.1c16.7,9,33.7,17.5,51,25.3c21.6,9.8,43.7,18.4,66.9,24.1c12.4,3,24.7,2.4,37.1,0.7
		c2.5-0.3,4.9-0.5,7.4-0.5c-1.2,3.5-4.1,5.6-6.5,8.1c-2.8,2.8-5.9,5.1-7.2,9.3c-1.2,3.7-4.9,3.7-8.4,3.8
		c-33.7,0.6-63.8-9.6-91.4-28.7c-20.6-14.3-42.5-26.2-66.8-33.2c-5.4-1.6-10.9-1-16.3-1.6c-18.8-1.9-34.7-9.8-47.9-23.3
		c-2.6-2.7-5.1-4.5-9.1-3.3c-1.4,0.4-3,0.3-4.5,0.3c-6.3-0.1-6.3-0.1-7,7.4C403.9,677.4,399.6,674.6,397,669.9z"/>
	<path class="st9" d="M649.1,319.1c-2.2,11.7-4.5,23.4-6.7,35.1c-5.4,28.5-10.1,57.1-10.9,86.2c-0.6,19.7,1,39.3,4.8,58.6
		c0.3,1.8,0.6,3.6,1,5.8c-2.4-0.6-3-2.5-4-3.8c-13.8-17.2-30.7-29.1-53.4-30.5c-10.5-0.6-21,0-31.2,2.9c-3.7,1.1-6.2,0.3-7.4-3.5
		c-2.1-7.1-7.1-11.5-13.7-14.3c-6-2.6-7.7-12.3-2.8-16.3c7.3-6,9.3-13.8,8.6-22.8c-0.6-8.7-3.7-16.9-4.3-25.6
		c-0.3-4.2,0.9-6.2,4.4-8.1c8.6-4.5,8.8-4.7,9,4.9c0.3,16.4,3.1,32.1,10.4,46.9c4.6,9.2,10,17.7,18.4,23.9
		c4.8,3.6,10.1,5.8,16.3,4.9c5.7-0.8,9.4-4,11.2-9.3c2.4-6.9,2.8-14,2.9-21.2c0.2-25.1-4.5-49.7-8.2-74.4c-0.3-1.8-0.4-3.7-0.9-5.4
		c-0.7-2.4,0.3-3.6,2.3-4.7c17-9.5,34-19.1,51-28.6C646.8,319.2,647.6,318.6,649.1,319.1z M641.8,328.5c-6.3,2.7-11.1,4.8-12.7,12
		c-3.8,16.9-8.8,33.4-12.8,50.3s-10.4,33.3-9.9,51.2c0.2,6.4-1.6,12.8-4.9,18.6c-1.4,2.5-6,4-4.3,7.1c1.2,2.1,5.3,2.4,7.7,3.9
		c3.5,2.2,4.7,0.7,5.9-2.6c4.8-13,9.8-25.8,14.7-38.7c0.8-2,1.2-4.1,1.3-6.3c1.2-14.8,2.9-29.5,5.4-44
		C635.5,363.2,638.6,346.4,641.8,328.5z M627.3,337.6c-0.4-0.2-0.8-0.5-1.2-0.7c-8.8,5-17.6,9.9-26.4,14.8c-2.2,1.2-1.5,3-1.2,4.8
		c1.6,10.3,3.2,20.7,4.7,31c1,6.9,1.9,13.7,2.9,20.6c0.3,0,0.6,0,0.9,0C613.7,384.6,620.5,361.1,627.3,337.6z M537.1,388
		c-0.9,5.7-1.8,11.4-0.4,17.1c2,8.5,3,17.1,0.4,25.6c-2.3,7.4-0.7,14.9-1.1,22.3c-0.1,1.1,0.8,1.8,1.6,2.4c3.9,3.2,6.8,7.3,8.5,12.1
		c0.4,1.1,0.8,2.3,2.7,1.7c0.8-7.2,1.5-14.4,2.5-21.7c0.4-2.8-0.1-5.1-1.4-7.6c-5.8-10.8-9.7-22.2-11.1-34.4
		C538,399.7,537.7,393.8,537.1,388z M625.7,448c-0.2,0-0.4,0-0.6,0c-2.3,6.6-4.7,13.1-7,19.7c-3.1,8.9-3.2,8.9,4.2,14.6
		c1.1,0.9,2.1,2.8,3.6,2.1c1.7-0.8,2.1-2.9,2-4.8C627.2,469.1,626.4,458.6,625.7,448z M557.3,452.1c-0.4,2.1-0.7,3.5-0.9,4.9
		c-1.4,10.4-1.4,10.4,8.6,9c0.7-0.1,1.3-0.1,2-0.2c2.5-0.4,2.9-1.6,0.9-3.2C564.1,459.7,560.8,456.2,557.3,452.1z M529.2,450.7
		c0.9-3.2,1-5.2,0.3-7.2c-0.2-0.5-1.2-0.3-1.6,0.3C526.4,446,527.7,447.8,529.2,450.7z"/>
	<path class="st8" d="M380,391c-5.3-0.2-7.8-3.1-8-8.3c-0.1-1.7-0.6-3.3-0.4-5c1.3-13.5-8.3-18.1-18.2-22.4c-0.9-0.4-1.9-0.6-4,0.7
		c4,2.4,7.4,4.7,11.1,6.5c4,1.9,5.6,4.5,5.6,8.9c0,6.1,0.8,12.3,1.2,18.4c0.2,3.6-0.3,7.2-4.7,7.5c-4.4,0.2-5.8-3.2-6.1-7
		c-0.5-5.3-0.9-10.6-1.3-15.9c-0.1-1.9-0.4-3.5-2.4-4.5c-5.6-2.9-11.1-6-16.7-9c-1.2-0.6-2.7-1.5-3.6-0.1c-1.1,1.8,1,2.1,2,2.7
		c4.4,2.7,8.8,5.3,13.4,7.8c2.3,1.2,3.3,2.8,3.3,5.5c0,6.2,0.4,12.3,0.7,18.5c0.2,2.9,0,5.5-3.6,6c-3.5,0.5-6.1-1.2-6.9-4.4
		c-1.1-4.5-1.9-9.2-2.2-13.8c-0.3-4.3-2-7-6-8.8c-4.5-2.1-8.7-4.9-13.1-7.3c-1-0.6-2.5-1.7-3.4,0c-0.7,1.3,0.8,2,1.7,2.7
		c3.8,2.7,7.5,5.6,11.4,8.1c2.3,1.5,3.4,3.3,3.2,6.1c-0.2,5.3-0.2,10.7,0,16c0.1,2.9-0.8,4.5-3.7,4.7c-3.2,0.2-6.1-0.1-7.3-3.7
		c-0.2-0.6-0.2-1.3-0.1-2c1.3-10.3-4.6-16.2-12.7-21c-2.1-1.2-3.6-0.9-5.5-0.1c-11.4,5-22.9,9.9-34.4,14.9c-2.1,0.9-4.2,2-6.7,1.3
		c-0.4-0.8,0.3-1.1,0.8-1.5c13.6-8.3,25-19.3,36.4-30.3c1.9-1.9,4.1-4.1,6.7-4.1c7.4,0,14-3.1,21.1-4.4c5-0.9,9.8-3.3,14.7-5
		c7.9-2.7,15.3-4.5,22.9,0.5c1.8,1.2,3.7,2.3,5.8,2.9c8.1,2.2,10.4,7.8,10.3,15.6c-0.1,5.1,0.4,10.3,2,15.3
		C382.9,386,383.3,389.2,380,391z"/>
	<path class="st8" d="M649.5,661.6c8,4.3,15.3,9.5,20.7,17c-0.5,0.5-1.1,1.1-1.6,1.6c-5.2-3.8-10.4-7.7-16.9-9.1
		c-2.7-0.6-5.5-1.3-9.2-0.1c1.9,1,3.2,1.8,4.5,2.4c15.6,7.5,27.1,19.1,34.6,34.6c1.5,3.1,0.1,5.4-2,8c-1.8-2.3-3.5-4.3-5.1-6.3
		c-9.8-12.1-20.9-22.9-33.9-31.5C624,667.3,606,661,586.2,660.7c-4.6-0.1-5.9-2.2-5.8-6.1c0.2-5.3,1.9-9.2,7.6-11.5
		c16.8-6.7,33.8-9.9,51.8-6.1c22.1,4.8,38.8,22.9,41,45c-8.9-10.1-17.9-19.1-30.6-23c-2.5-1.6-5.1-1.6-8.6-0.6
		C644.7,659.7,647.1,660.7,649.5,661.6z"/>
	<path class="st6" d="M700.8,317.1c0.4,4.7,0.6,9.4,2.3,13.9c0,1.7-0.1,3.3,0.6,4.9c-0.5,0.8-0.3,1.5,0.4,2c0.5,3.3,1,6.6,1.5,9.9
		c-0.5,0.9-0.4,1.6,0.5,2.1c0.1,1.3,0.2,2.7,0.4,4c2.4,19.3,5.1,38.5,8.1,57.7c2.7,17.2,4.9,34.5,7.3,51.8c0.5,3.9-7.8,12-11.6,11.3
		c-2.2-0.4-1.9-2.6-2.1-4c-1.8-11.3-3.5-22.7-5.3-34c-4.9-30.8-9.8-61.7-14.6-92.5c-1.3-8.7-2.1-17.4-3.2-26.2
		c1.2-1.5,2.8-1.9,4.7-2.1c3.5-0.3,6.8,1.3,10.2,1C700.2,317.1,700.5,317.1,700.8,317.1z"/>
	<path class="st6" d="M510.3,501.3c0.1-0.5,0.1-1.1,0.4-1.3c17.2-11,34.8-20.9,56.1-20.8c10.2,0,19.8,2.7,28.7,7.5
		c3.9,2.1,8.6,2.2,12,5.1c-0.2,1.3-1,1.3-1.5,1.2c-19.1-5.2-36.6-0.1-53.1,9c-27.9,15.4-47.5,39.1-64.1,65.7
		c-7.7,12.3-14,25.2-19.8,38.4c-0.6,1.5-0.4,5.6-3.7,3.5c-2.5-1.6-7.4-2.7-5.3-7.5c3.5-8.2,6.9-16.6,11.3-24.4
		c9.3-16.9,19.7-33.1,32.8-47.5c19.5-21.5,41.4-39,71.3-43.5c4.2-0.6,8.5-0.5,12.7-1c-15.5-3.6-30.2-0.5-44.5,5.8
		c-9.2,4.1-17.5,9.6-25.3,15.7c-0.8,0.7-1.5,1.2-2.6,1.1c-0.2-1.1-0.7-2.3-0.5-3.4C515.6,500.6,513.7,500.1,510.3,501.3z"/>
	<path class="st6" d="M544.8,293c7.4-4.6,15.9-7,23.6-11c2.7-1.4,6-2,8-4.6c1.6-0.7,3.1-1.3,4.7-2c0.9-0.3,1.9-0.5,2.8-0.8
		c1.2,0.3,1.9-0.3,2.2-1.4c7.3-3.1,14.5-6.2,21.8-9.2c0.4-0.2,0.8-0.5,1.2-0.7c0.3-0.1,0.6-0.1,0.8-0.2c0.4-0.2,0.8-0.5,1.2-0.7
		c0.6-0.4,1.2-0.8,1.8-1.1c0.5,0,0.9,0,1.4,0c2.3,6.5,4.9,12.8,4.7,19.9c-15,9.5-31.6,16-47.1,24.6c-7.6,4.2-15.1,8.9-23.8,10.9
		c-1.8-2-2.2-4.3-2.2-6.9C545.9,304.1,546.4,298.5,544.8,293z"/>
	<path class="st6" d="M617,501c-6.8,0.1-13.3-2-20.3-1.4c-17.1,1.5-31.7,8.6-45.1,18.5c-18.4,13.4-32.6,30.7-45,49.7
		c-10.5,16-18.7,33.2-25.6,51c-1.2,3.2-2.1,3.2-4.7,1.1c-3.7-3-4.2-5.7-2.3-10.1c13.9-32.9,31.5-63.3,58.4-87.6
		c14.9-13.5,31.6-24,52-26.7C595.6,493.9,606.8,494.9,617,501L617,501z"/>
	<path class="st6" d="M379.3,391c3.3-1.8,2.9-5,3-8c0.8,0,0.9,1.6,2.4,0.7c4-2.5,8.3-2,12.7-0.7c0.5,2.4-3.3,4.5-1.4,6.1
		c2.1,1.7,4.2-1.7,6.4-2.4c3.7-1.1,5.8-4.3,9-6.1c2.5,2.1,5.7,2.4,8.8,2.4c1.9,0,3.8,0.1,3.9,2.7c-2.4,1.4-3.5,3.9-4.7,6.2
		c-5.9,2.3-8.8,7.6-12.6,12.1c-1.5,1.9-3.6,3.9-3,6.6c1,6.2,2.7,12.3,5.5,17.9c2.7,5.7,3.2,5.5-2.4,7.6c-9.1,0-18.3,0.1-27.4,0.1
		c-1.9-4-1.4-8.3-0.9-12.3C380.1,412.9,378.9,401.9,379.3,391z"/>
	<path class="st9" d="M593.2,427.1c0,8.8,0.3,15.3-1.3,21.7c-1.8,7.1-5.9,8.9-12.2,5.1c-6.1-3.7-10.8-8.8-14.6-14.8
		c-8.9-14.1-13.4-29.6-13.9-46.3c-0.2-6.3-2.2-13.5,0.2-18.7s10.3-6.7,15.6-9.9c4.8-2.9,9.9-5.5,14.8-8.4c2.2-1.3,3.1-1.1,3.5,1.7
		C588.8,381.3,592.4,405.2,593.2,427.1z M574.1,441.6c1.6-7.7,2.9-14.7,4.5-21.6c4-17.7,7.7-35.3,2.8-53.6c-1-3.6-1.8-3.5-4.4-1.9
		c-3.1,1.9-6.3,3.7-9.6,5.4c-2.5,1.2-3.5,3-3.8,5.8c-0.8,10.4-1.3,20.9-2.9,31.2c-1.2,8,1,14.7,4.4,21.5
		C567.4,432.9,569.5,437.6,574.1,441.6z M586.7,409c-0.4,0.3-0.9,0.5-0.9,0.7c-2.1,11.9-4.4,23.9-6.3,35.8c-0.5,3.2,2.6,4.2,4.8,4.7
		c2.3,0.5,2.3-2,2.5-3.5C589.1,434.2,587.8,421.7,586.7,409z M555.9,391.3c0.6,0,1.2,0.1,1.7,0.1c0.5-4.4,1-8.8,1.4-13.1
		c0.1-1,1.5-2.9-0.9-3c-1.4,0-2.2,1.3-2.2,2.8C555.9,382.5,555.9,386.9,555.9,391.3z"/>
	<path class="st6" d="M469,831.9c-8-2.4-13.6-8.2-18.9-14c-17.3-18.8-24.9-42.1-29-66.7c-3.2-19.1-4-38.3-2.1-57.6
		c0.2-1.9-0.8-5.5,2.1-5c2.6,0.4,6.7,1.3,6.8,5.4c0.1,3.3-0.7,6.6-0.8,9.9c-0.5,25.5,0.7,50.8,8.4,75.4
		c6.3,20.1,15.6,38.1,32.5,51.4C468.4,831.1,468.7,831.5,469,831.9L469,831.9z"/>
	<path class="st6" d="M470.1,474.9c-0.2-0.1-0.4-0.3-0.4-0.6c0.5-1.2-0.2-2.2-0.7-3.3c-2-4.3-3.5-7.7-0.1-12.9
		c4.9-7.4,3.3-9.9-4.8-13.6c-8-3.6-11.9-10.5-14.8-18.2c-0.6-1.5-0.4-2.9,1.1-3.9c1.5,1.6,3,3.2,4.5,4.8c3.6,5,9.4,6.7,14.2,9.9
		c-0.2,1.9,0.7,2.4,2.4,2.9c7.3,2.4,7.9,3.8,4.6,10.5c-2.7,5.6-1.6,7.3,4.6,7.3c10,0,19.9,0.1,29.8,0.9c4.1,0.3,3.2,2.8,3.3,5.2
		c0.1,2.7-1.1,2.6-3.5,2.3c-4.4-0.6-8.5,1.5-12.2,3.6c-5.4,3-11,6.3-12.5,13.2c-0.7-0.2-0.5-1.8-2.1-0.8c-5.6,3.6-8.9,2.3-10.7-3.8
		C472.5,477,472.3,475.2,470.1,474.9z"/>
	<path class="st6" d="M479,835.4c-15.7-10.5-25.1-25.9-32-43c-8.6-21.6-12-44.2-12-67.4c0-8.6-0.5-17.3,0.7-25.9
		c0.6-3.8,1.6-3.4,4.4-2c3.5,1.8,5.5,3.7,4.8,8.1c-1.9,12.1-1.3,24.3-0.6,36.4c0.9,16.1,3.7,32,8.8,47.4c5.7,17,13.8,32.5,27,44.9
		C479.8,834.4,479.4,834.9,479,835.4z"/>
	<path class="st6" d="M510,513c-6.9,8-14.7,15.3-21.2,23.7c-10.9,14.1-20.6,28.9-28.2,45.1c-2.2,4.6-4.6,9.2-6.7,13.9
		c-1,2.2-2,2.8-4,0.9c-2.7-2.5-5.8-3.6-3.4-9.1c9-20.5,20.6-39.4,34.5-56.8c5.8-7.3,11.9-14.5,19.1-20.6c0.3,2.1,1.9,2,3.3,1.8
		C505.7,511.7,507.8,512.2,510,513z"/>
	<path class="st6" d="M493.5,838.2c-10.6-7.1-17.9-16.5-23.8-27C459,792,454.2,771,451.9,749.3c-1.4-13.3-1-26.6-0.8-39.9
		c0-2-0.7-5.6,2.7-5.2c2.7,0.4,6.5,1.1,6.2,5.7c-0.3,4.3-0.7,8.7-0.7,12.9c-0.3,33.1,3.4,65.5,20.2,95c3.4,6,7.8,11.2,12.2,16.4
		C492.5,835.2,494,835.7,493.5,838.2z"/>
	<path class="st2" d="M499.9,367c-1.4,0.1-2.8,0.1-3.9,1c-0.7,0-1,0.3-0.7,1.1c0,2.3,4,7.1-3.1,4.9c-0.8-0.9-1.4-0.9-2,0.2
		c-5,5.8-9,6.6-16.1,2.7c-2.6-1.4-4.8,0.3-7.6-0.3c1.7-3.8,0.2-4.8-3.5-4.3c-3.3,0.4-6.6,0.4-9.9,0.6c-0.3-1.5-0.7-2.9-1-4.4
		c18.1-2.3,35.6-7.6,53.1-12.4c4.6-1.3,8.9-3.5,13.7-4.1c2.9,4.4-0.4,7.9-1.9,11.6c-0.9,0-1.9,0-3.7,0c3.7,2.5,2.2,5.9,2.8,8.7
		c-5.2,2.9-8,2.1-10.2-3.1c-1-2.3-2.1-3.8-4.8-2.2C500.5,366.3,500.1,366.4,499.9,367z"/>
	<path class="st2" d="M380,436.1c9,0,18-0.1,27-0.1c6.7,2.3,13.9,0.5,17.1-4.8c2.4-4,4.2-7.9-0.3-12.3c-2.8-2.7-4.2-6.9-3.6-11.2
		c3.3,4.7,5.5,10.1,10.8,13.3c2.6,1.6,5.1,3.1,8.3,2.6c0.8-0.1,1.7-0.5,2.1,0.6c0.4,1.2-0.5,1.8-1.4,2.3c-6.8,4-6.8,4-4.9,11.6
		c0.2,0.6,0.2,1.3,0.2,1.9c-2.8,1.1-6.5,1.1-7.3,5.1c-1.4-2.2-2.9-0.6-4.2,0.1c-7.8,4.1-15.6,8.3-23.4,12.5c0.1-0.7-0.1-1.4,0.2-1.9
		c4.3-7.3,1.4-13.1-7.2-13.6c-3.7-0.2-7-1.9-10.6-2.4C380.8,439.4,379.8,438.1,380,436.1z"/>
	<path class="st0" d="M447,490c0.5,1.9,1.2,3.7,1.5,5.6c0.4,3.8,1.9,6.8,5.6,8.3c0.7,1.6,2.2,1.9,3.6,2c11,1.3,20.2-4,25-14.1
		c4.4-0.1,5.9,2.4,6.4,6.4c0.5,4.5,0.3,7.9-4.2,10.8c-3,1.9-4.5,6.1-6.7,9.2c-0.3,0.3-0.6,0.5-0.9,0.8c-3.2-1.9-6.4-2.2-10.3-1.5
		c-5.7,1-11.7,0.7-17.6-0.5c-3.5-6.8-7.3-13.4-8.3-21.2c2.3,0.1,3.9-0.6,3.9-3.2C445,491.4,445.2,490.1,447,490z"/>
	<path class="st8" d="M286.3,526.3c-4.3,19.9-1.8,36.8,14,49.9c-8.5,2.7-20.1-2.3-25.2-10.7c-5.6-9.3-5.4-19.6-4.8-30
		c0.1-1.3,0.8-2.1,2-2.6C276.6,530.9,280.9,528.8,286.3,526.3z"/>
	<path class="st7" d="M473.6,717.1c17.2,12.6,35.3,20.2,53.3,28.5c-10.7,0.5-21.3,1-32,1.5c-10,0.4-10.1,0.4-13.6-9.1
		C478.9,731.5,476.5,725,473.6,717.1z"/>
	<path class="st9" d="M400.2,457.6c7.8-4.2,15.6-8.3,23.4-12.5c1.3-0.7,2.8-2.2,4.2-0.1c0.9,5.9-0.5,10.2-6.7,12.9
		c-3,1.3-6.6,3.3-8.3,6.8c-1.6,3.3-4.1,4.5-7.6,4.1c-0.9-0.9-2-1-3.1-0.6c-1.3-0.1-2.7-0.2-4-0.3c-1.7-0.2-3.3-0.5-5-0.7
		c-1.8-0.4-3.5-0.9-5.7-1.4C391.2,462,396.6,461.2,400.2,457.6z"/>
	<path class="st9" d="M510,492c-0.6,0.1-1,0.4-1,1.1c-1,0-2,0-3-0.1c-0.1-0.4-0.2-0.8-0.3-1.1c6.7-7.7,15-14.2,20.1-23.2
		c1.2-2.1,2.7-1.5,4.2-0.4c2.6,2,3.9,4.9,5.1,7.8c0.9,2.2-1.1,2.4-2.3,3c-6.9,3.1-13.5,7-19.9,11C511.5,490,510.5,490.6,510,492z"/>
	<path class="st6" d="M482.6,491.9c-4.8,10.1-14.1,15.4-25,14.1c-1.4-0.2-2.9-0.4-3.6-2c0.7,0,1.3,0,2,0.1
		c13.4,2.1,13.6,0.8,16.2-14.1c0.9-5.2-1.3-10-2.1-15c2.1,0.3,2.4,2.1,2.8,3.6c1.8,6.1,5.1,7.4,10.7,3.8c1.6-1,1.4,0.6,2.1,0.8
		C485.4,486.3,482.5,488.5,482.6,491.9z"/>
	<path class="st7" d="M258.9,556.8c-4.9-0.7-10.5-1.5-16-2.3c-0.9-0.1-2.2,0-2.5-1.2s0.8-1.7,1.6-2.2c4.6-2.9,9.3-5.7,13.9-8.8
		c2.7-1.8,3.6-1.2,4.2,1.8c0.6,3.3,1.3,6.5,2.2,9.7C262.9,556.3,262.8,557.8,258.9,556.8z"/>
	<path class="st6" d="M544.8,293c1.5,5.5,1.1,11.1,1,16.7c0,2.6,0.4,4.9,2.2,6.9c-4,3.5-6.2,3.2-8.4-1.1
		C536.1,308.3,538.8,296.4,544.8,293z"/>
	<path class="st6" d="M619,281.1c0.2-7.1-2.4-13.4-4.7-19.9c0.7-1.6,2.9-0.6,3.7-2c0.6,0,1.3-0.1,1.9-0.1c7.5,2.7,6,9.2,6,14.9
		C625.9,278.3,622.6,279.9,619,281.1z"/>
	<path class="st6" d="M469.1,437.2c-4.7-3.3-10.6-5-14.2-9.9c3.8,1.7,6.1-0.2,8.1-3.1c4.4,2.1,8.9,4,13.6,5.2
		c0.6,1.8,3.9,2.7,2.5,4.8c-1,1.6-3.7,0.5-5.7,0.5c-0.8,0-1.7-0.6-2.4-0.4c-1.4,0.3-0.9,1.5-0.8,2.4
		C469.8,436.9,469.5,437.1,469.1,437.2z"/>
	<path class="st7" d="M470.1,292.9c2.6-1.7,5.4-0.7,8.1-0.7c8.4-0.1,16.9,0.1,25.3,0.2c-3.8,3-8.5,4.2-12.8,6.2
		c-0.5,0.3-1.4,0.3-1.9,0.1C482.9,295.8,476.4,294.9,470.1,292.9z"/>
	<path class="st7" d="M510,513c-2.1-0.7-4.3-1.3-6.6-1.1c-1.5,0.1-3,0.2-3.3-1.8c3.4-2.9,6.9-5.9,10.3-8.8c3.3-1.2,5.3-0.7,4.6,3.5
		c-0.2,1.1,0.3,2.3,0.5,3.4C514.1,510.3,512.3,512,510,513z"/>
	<path class="st9" d="M432.5,593.3c-0.9,4.9-4.2,7.4-8.7,6.9c-3.6-0.4-5.5-3.4-6.1-7c-0.5-2.8,0.2-4.3,3.4-3
		C424.7,591.7,428.5,592.7,432.5,593.3z"/>
	<path class="st6" d="M700,317c-3.5,0.3-6.7-1.3-10.2-1c-1.9,0.2-3.5,0.5-4.7,2.1c-2-5-0.5-8.2,4.3-8.9c2.4-0.3,5-0.4,7.4-0.1
		C701.9,309.9,699.3,314.2,700,317z"/>
	<path class="st0" d="M581.1,275.4c-1.6,0.7-3.1,1.3-4.7,2c-1.5-0.3-2.9-0.8-3.5-2.4c-1.2-3.7-4.3-6.2-6.2-9.5c2-0.9,4-1.8,6.1-2.8
		C575.3,267.1,577.8,271.4,581.1,275.4z"/>
	<path class="st7" d="M740.4,426c-1.8-6-3.6-11.8-7.4-16.8c-1.8-2.3,0-2.9,1.9-2.9c2.2,0,3.6,1.5,4.5,3.4
		C742,414.9,742.5,420.3,740.4,426z"/>
	<path class="st7" d="M730.1,429c-1.9-6.5-3.8-11.7-7.2-16.3c-0.9-1.2-1.8-2.8-0.1-3.9c1.4-0.9,3-0.2,4,1c2.9,3.2,4.2,7.1,4.3,11.3
		C731.1,423.3,731.4,425.6,730.1,429z"/>
	<path class="st7" d="M748.9,423.5c-1.5-6.6-3.2-11.7-6.6-16c-1.5-1.9-0.5-2.6,1.5-2.7c1.8,0,3.2,0.8,4.1,2.4
		C750.7,412,751,416.9,748.9,423.5z"/>
	<path class="st6" d="M470.2,436.7c0-0.9-0.6-2.2,0.8-2.4c0.8-0.1,1.6,0.4,2.4,0.4c1.9,0,4.6,1,5.7-0.5c1.4-2.1-2-3-2.5-4.8
		c3.5-0.4,6.4,1.9,9.8,2c-0.4,1.8-2.6,2.7-2.2,4.8c-3.1,2.2-6.7,1.2-10.1,1.5c-0.6-0.8-1.3-0.8-2.1-0.4
		C471.4,437.1,470.8,436.9,470.2,436.7z"/>
	<path class="st2" d="M393,467.3c1.7,0.2,3.3,0.5,5,0.7c0.1,3.2-3.7,6.4,0,9.6c-2.7,0.4-5.4,0.2-8-0.7
		C391,473.7,392,470.5,393,467.3z"/>
	<path class="st6" d="M488.5,431.5c5.5,1,11-1.9,16.4,0.5c-4.2,1.8-8.5,2.7-13,3.3C491,433.8,488.3,434,488.5,431.5z"/>
	<path class="st7" d="M477.3,519.1c0.3-0.3,0.6-0.5,0.9-0.8c0.9,0,2.1,0.3,1.4,1.2c-2.9,3.7-6,7.2-9.9,10
		C472.1,526,474.7,522.6,477.3,519.1z"/>
	<path class="st7" d="M516,372c-0.6-2.9,1-6.2-2.8-8.7c1.8,0,2.8,0,3.7,0c2.8,2.6,2.1,5.7,1.5,8.9C517.6,372.1,516.8,372,516,372z"
		/>
	<path class="st6" d="M504,497c-1.9,2.3-4.2,4-7.9,5.3c1.3-3.8,3.9-5.4,5.9-7.4C503.4,494.9,504,495.6,504,497z"/>
	<path class="st2" d="M708,357c3.4,1.1,5.8,3.1,6,7C708.1,365,708.1,361,708,357z"/>
	<path class="st6" d="M488.5,431.5c-0.2,2.5,2.4,2.4,3.4,3.8c-2.5,1.6-5.2,0.8-7.8,0.9c-0.5-2.1,1.8-3,2.2-4.8
		C487.1,431.4,487.8,431.4,488.5,431.5z"/>
	<path class="st7" d="M668.6,680.2c0.5-0.5,1.1-1.1,1.6-1.6c2.5,2,3.8,4.8,4.6,8.1C672.8,684.5,670.7,682.4,668.6,680.2z"/>
	<path class="st6" d="M649.5,661.6c-2.4-0.9-4.8-1.8-8-3.1c3.5-1.1,6.1-1.1,8.6,0.6C650,659.9,649.7,660.7,649.5,661.6z"/>
	<path class="st6" d="M504,497c0-1.4-0.6-2.1-2-2.1c0.3-0.3,0.7-0.6,1-0.9c1.1-0.1,2.3,0.2,3-1c1,0,2,0,3,0.1
		C508.4,495.7,505.4,495.3,504,497z"/>
	<path class="st6" d="M498.9,841.1c-1.6,0-3.1-0.4-3.9-2c0.4-0.4,0.7-0.8,1.1-1.2c1.4,0.6,2.3,1.7,3.1,2.9L498.9,841.1z"/>
	<path class="st6" d="M479,835.4c0.4-0.5,0.8-1,1.2-1.5c0.9,0.6,2.3,1.3,1.4,2.4C480.6,837.6,479.7,836.1,479,835.4z"/>
	<path class="st6" d="M506,493c-0.7,1.2-1.9,0.9-3,1c0.6-1.1,1.3-2.1,2.7-2.1C505.8,492.2,505.9,492.6,506,493z"/>
	<path class="st6" d="M510,492c0.5-1.4,1.5-2,3-2C512.9,492,511.5,492.1,510,492z"/>
	<path class="st6" d="M483.3,837.8c0.2-0.2,0.4-0.4,0.7-0.5c0.2,0.3,0.4,0.7,0.7,1c-0.3,0.1-0.6,0.3-0.8,0.3
		C483.6,838.5,483.4,838.1,483.3,837.8z"/>
	<path class="st6" d="M471.9,437.3c0.8-0.4,1.5-0.4,2.1,0.4C473,439.4,472.4,438.8,471.9,437.3z"/>
	<path class="st6" d="M616.9,501c0.4,0.1,0.8,0.2,1.3,0.2c-0.1,0.2-0.2,0.3-0.3,0.5C617.6,501.5,617.3,501.2,616.9,501
		C617,501,616.9,501,616.9,501z"/>
	<path class="st6" d="M469,831.9c0.1,0.1,0.3,0.1,0.4,0.2C469.3,832.1,469.1,832,469,831.9L469,831.9z"/>
	<path class="st6" d="M496,837.9c-0.4,0.4-0.7,0.8-1.1,1.2C494.9,838.4,495.3,838,496,837.9z"/>
	<path class="st6" d="M499.1,840.8c0.1,0.2,0.2,0.4,0.3,0.6c-0.2-0.1-0.4-0.2-0.6-0.3C498.9,841.1,499.1,840.8,499.1,840.8z"/>
	<path class="st0" d="M618.1,259.2c-0.8,1.4-3,0.4-3.7,2c-0.5,0-0.9,0-1.4,0c0.8-5-2-7.9-6.1-9.6c-4-1.7-6-4.4-6.4-8.5
		c5.6-5.8,12-7.8,19.7-4.5C616.3,245.1,618.6,252.3,618.1,259.2z"/>
	<path class="st0" d="M630.8,237.3c9.7-2.6,13.7-8.3,10.2-18.3c6.1,1.1,6.7,2,6,7.9c-0.7,6.4-0.9,12.9-6.2,17.7
		c-3.8,3.5-5.9,3.3-7.6-1.5C632.5,241.2,630.6,239.6,630.8,237.3z"/>
	<path class="st0" d="M706.1,350c-0.8-0.5-1-1.3-0.5-2.1C706.6,348.4,707.3,349,706.1,350z"/>
	<path class="st2" d="M704.1,338c-0.7-0.5-0.9-1.2-0.4-2C704.7,336.4,705.3,337,704.1,338z"/>
	<path class="st0" d="M570.7,555.7c0.1,0,0.2,0,0.4,0.1C571,555.7,570.8,555.7,570.7,555.7C570.7,555.6,570.7,555.7,570.7,555.7z"/>
	<path class="st0" d="M398,477.6c-3.7-3.2,0.2-6.4,0-9.6c1.3,0.1,2.7,0.2,4,0.3c0.9,1,2,0.8,3.1,0.6c3.5,0.4,6.1-0.8,7.6-4.1
		c1.7-3.5,5.2-5.5,8.3-6.8c6.2-2.7,7.6-7,6.7-12.9c0.8-4,4.5-4,7.3-5.1c1,0.8,1.1,1.8,0.9,2.9c0.1,0.4,0.2,0.7,0.3,1.1
		c4.2,8,4.2,17.2,6.9,25.6c1.3,4.1,1.8,8.3,2.7,12.5c-1.4,1.1-0.7,1.7,0.6,2c0.2,2,0.3,4,0.5,6c-1.8,0.1-2,1.4-2,2.8
		c0,2.6-1.6,3.3-3.9,3.2c-0.8-1.3-1-2.7-1-4.1c1.1-1,0.6-1.5-0.5-1.9c-1-2.8-2.1-5.7-3.1-8.5c0.5-1.1,0.4-2-0.8-2.5
		c-1.7-3.7-2.3-7.6-3.2-11.5c-0.3-5.2-2.8-3.8-5.5-1.8c-0.3,0.2-0.6,0.3-0.9,0.5c-0.6-0.2-1,0-1.1,0.6c-5.2,1.3-8,5.7-11.1,9.3
		c-2.3,2.5-4.1,3.2-7,2.8C403.9,478.3,401,478,398,477.6z"/>
	<path class="st2" d="M441.3,525.9c-3.7-4.9-7.3-9.9-12.3-13.5c-5.7-4.1-10-4.1-16.2-0.6c-2.1,1.2-3.6,4-7.5,2.7
		c4.7-5,7.8-10.9,14.7-12.9c5.4-1.5,9.9-0.1,14.1,3.6c6.6,5.9,9.9,13.6,13,21.5c-0.2,0.6,0.1,1,0.7,1.1c0.4-0.1,0.6,0.1,0.7,0.4
		c-0.6,1-1.1,2-2.3,2.5c-0.7-0.7-1.4-1.3-2.1-2C444,527.1,443,526.2,441.3,525.9z"/>
	<path class="st6" d="M446.1,530.9c1.2-0.5,1.7-1.5,2.3-2.5c1.2,1.5,1.8,3.2,2.2,5.3C448.3,533.6,447,532.5,446.1,530.9z"/>
	<path class="st6" d="M427,465.6c2.7-2,5.2-3.4,5.5,1.8C431.3,464.9,429.2,465.2,427,465.6z"/>
	<path class="st6" d="M441.3,525.9c1.7,0.3,2.7,1.2,2.7,3C442.6,528.4,441.6,527.5,441.3,525.9z"/>
	<path class="st6" d="M439.6,489.9c1.1,0.4,1.6,1,0.5,1.9C439.6,491.3,439.3,490.7,439.6,489.9z"/>
	<path class="st6" d="M435.7,479c1.2,0.5,1.3,1.4,0.8,2.5C435.6,480.8,435.3,480,435.7,479z"/>
	<path class="st6" d="M447.7,528c-0.6-0.2-0.8-0.5-0.7-1.1C447.3,527.2,447.5,527.6,447.7,528z"/>
	<path class="st6" d="M425,466.7c0.2-0.6,0.6-0.8,1.1-0.6C425.9,466.7,425.6,466.9,425,466.7z"/>
	<path class="st10" d="M148.1,606.9c3.5-3.8,8.4-5.3,12.6-7.9c2.5-1.6,5.5-2.6,7.8-4.5c9.2-7.7,18.3-6.9,29.3-2.8
		c53.3,19.8,107,38.8,160.6,57.9c4.1,1.4,6,3.7,6.6,8.4c-5.2-1.1-10.1-2.2-15.1-3.3c-59.1-14-118.1-28.1-177.2-41.9
		c-6.8-1.6-13.5-3.8-20.5-4.8C150.9,607,149.5,607.1,148.1,606.9z"/>
	<path class="st10" d="M152.1,609.9c19.7,5.4,39.4,10.8,59.1,16c50.5,13.5,100.9,26.9,151.4,40.4c1.8,0.5,3.5,1.1,5.3,1.5
		c2.2,0.5,3.3,2.1,3.1,3.9c-0.3,2.7-2.7,1.3-4,1.1c-34-5-68.1-10.2-102.1-15.3c-25-3.8-50-7.5-75-11.2c-2.4-0.4-4.4-1.2-6.4-2.6
		c-12.7-9.1-25.4-18.2-38.2-27.3c-1.1-0.8-2.2-1.6-2.8-2.7c-0.7-1.3-0.8-3.1,0.1-4.3c1.5-2.3,3.7-0.2,5.5-0.4
		C149.2,609.8,150.6,609.9,152.1,609.9z"/>
	<path class="st10" d="M186.3,584.5c9.7-5.5,18.3-10.3,26.8-15.1c2.2-1.3,4.1-0.6,6.2,0.3c43.9,20.1,87.8,40.1,131.7,60.2
		c0.9,0.4,2,0.7,2.6,1.4c2.1,2.2,4.1,5.5,3.1,7.9c-0.9,2.2-4.1-0.2-6.1-0.9c-52.4-17.1-104.7-34.2-157.1-51.3
		C191.5,586.3,189.5,585.6,186.3,584.5z"/>
	<path class="st10" d="M195.8,651.1c20.3,3.6,40.5,7.2,60.8,10.9c38.6,6.9,77.2,13.8,115.9,20.8c0.7,0.1,1.3,0.2,2,0.3
		c1.5,0.3,2.5,1.1,2.5,2.6c-0.1,2.2-1.9,1.4-3,1.4c-13.5-0.8-26.9-1.5-40.3-2.4c-17.4-1.1-34.8-2.4-52.3-3.6
		c-15.8-1.1-31.5-2-47.3-3.1c-1.1-0.1-2.5-0.1-3.3-0.7c-11.8-8.3-23.5-16.7-35.3-25C195.5,651.9,195.6,651.5,195.8,651.1z"/>
	<path class="st10" d="M241.8,683.8c9.2,0.8,18.4,1.6,27.6,2.5c27.1,2.5,54.3,5.1,81.4,7.7c8.8,0.8,17.5,1.6,26.3,2.5
		c1.5,0.2,3.9-0.2,3.7,2.3c-0.2,2.1-2.4,1.3-3.7,1.3c-36.1,0.7-72.2,1.4-108.3,2.1c-1.6,0-3.3,0.2-4.8-0.8
		c-7.5-5.4-15.1-10.8-22.6-16.2C241.5,684.7,241.6,684.3,241.8,683.8z"/>
	<path class="st10" d="M349,620.4c-43.1-18.2-85.6-36.2-128.4-54.3c3.1-3.6,6-4.6,10-2.7c9.8,4.6,20.1,8,31,8.9
		c1.9,0.2,3.3,1.1,4.5,2.7c8.4,11.5,20,14.2,33.2,11.3c3.7-0.8,6.5-0.4,9.8,1.5c8.9,5.3,17.7,10.6,27,15
		C343.4,606.3,347.3,611.6,349,620.4z"/>
	<path class="st10" d="M275.6,708.3c6.6,0,13.2-0.1,19.7,0c27.5,0.3,54.9,0.6,82.4,0.8c0.5,0,1-0.1,1.5,0c1.6,0.3,4.4-0.8,4.4,1.8
		c0.1,2.6-2.7,1.7-4.4,1.9c-27.8,2.9-55.6,5.7-83.4,8.5c-1.3,0.1-2.7,0.8-3.9-0.1c-5.6-3.9-11.2-7.9-16.8-11.9
		C275.3,709,275.5,708.6,275.6,708.3z"/>
	<path class="st10" d="M302.7,727.7c5.4-0.5,10.9-1,16.3-1.4c20.8-1.5,41.5-3,62.3-4.4c0.8-0.1,1.7-0.1,2.5-0.1
		c1.1,0,2.6-0.4,2.8,1.2c0.2,1.6-1.4,1.6-2.4,1.9c-7.2,1.4-14.4,2.7-21.6,4c-14.1,2.7-28.1,5.2-42.2,8c-3.9,0.8-7,0.5-10-2.2
		c-2.4-2.2-5.3-3.9-8-5.8C302.5,728.4,302.6,728,302.7,727.7z"/>
	<path class="st10" d="M324.4,743.5c14-2.2,27.2-4.4,40.4-6.5c7.2-1.2,14.4-2.3,21.6-3.4c1.1-0.2,2.5-0.8,3,0.7c0.6,2-1.3,2-2.4,2.3
		c-15.4,4.3-30.7,8.7-46.1,12.6C334.9,750.8,329,749.9,324.4,743.5z"/>
	<path class="st10" d="M375.3,749.1c5.1-1.3,10.1-2.6,15.2-3.9c0.8-0.2,1.7-0.2,2.1,0.8c0.5,1.3-0.5,1.7-1.4,2.2
		C386.1,750.8,380.7,749.5,375.3,749.1z"/>
	<path class="st9" d="M152.1,609.9c-1.4,0-2.8-0.1-4-1c0-0.7,0-1.3,0-2c1.4,0.2,2.8,0.2,4,1.1C152.1,608.6,152.1,609.3,152.1,609.9z
		"/>
	<path class="st10" d="M803.9,448.9c2.7,9.5-3.1,14.5-9.6,19.8c-15.1,12.3-29.7,25.1-44.6,37.7c-1.2,1-2.3,3.1-4.1,2.2
		c-1.4-0.7-0.7-2.7-0.8-4.2c-0.4-3.5-0.2-7.1-1.2-10.4c-1.8-6.5,0.6-10.8,5.1-15.4c14.2-14.5,28.2-29.2,41.6-44.4
		c1.6-1.8,3.3-4.7,6.1-2.7c3,2.2,7.7,3.1,7.5,8.3C803.8,442.9,803.9,445.9,803.9,448.9z"/>
	<path class="st10" d="M802.1,579.1c-0.2,10.6-0.2,10.6-10.2,14.5c-35.3,13.6-70.5,27.2-105.8,40.7c-1.5,0.6-3.7,3.3-5.3-0.2
		c-1.4-3.1,0.9-4,3-5.1c38.1-19.8,76.3-39.5,114.4-59.4c3.6-1.9,4.2-0.9,4,2.5C802,574.5,802.1,576.8,802.1,579.1z"/>
	<path class="st10" d="M803,466.1c0,10.6,0,20.9,0,31.1c0,1.3-0.9,2.1-1.8,2.8c-17.7,12.6-35.5,25.2-54.2,38.6
		c-0.4-7.6-0.7-14.2-1-20.9c-0.1-1.3,1-2.1,1.9-2.8c18-16.1,36-32.2,54-48.2C802,466.5,802.4,466.4,803,466.1z"/>
	<path class="st10" d="M801.9,605.3c-0.4,12.2,2,9.4-9.3,12.8c-34.5,10.2-69,20.2-103.5,30.3c-1.1,0.3-2.3,0.6-3.4,0.8
		c-1.6,0.2-2.5-0.9-2.8-2.3c-0.5-1.8,1-2.3,2.2-2.8c5.7-2.4,11.4-4.8,17-7.1c31.3-13.1,62.7-26.1,94-39.2c5.8-2.4,5.8-2.4,5.8,3.8
		C801.9,603,801.9,604.5,801.9,605.3z"/>
	<path class="st10" d="M742,478.1c-1.3-9-3.2-17.7-3.5-26.5c-0.1-4.5,4.2-8,8.2-10.5c10-6.1,18.5-13.3,20.3-25.9
		c0.4-3,1.7-3.7,4.3-1.8c6.2,4.5,12.5,8.9,18.7,13.3c1.7,1.2,2.5,2.2,0.4,4.2c-14.6,14.4-29,28.9-43.5,43.3
		C745.6,475.6,744.6,477.2,742,478.1z"/>
	<path class="st10" d="M802.8,503.6c0,9.6,0,18,0,26.4c0,2.1-1.5,2.8-2.9,3.7c-16.9,10-33.8,20-50.6,30.1c-2.3,1.4-3.6,1.6-3.3-1.8
		c0.4-4.6,0.7-9.3,0.9-13.9c0.1-1.5,0.7-2.5,1.8-3.4C766.3,531.2,784.1,517.8,802.8,503.6z"/>
	<path class="st10" d="M731,596c4.6-6.3,9.5-12.4,12.1-20c0.5-1.5,1.8-2.3,3-3.1c17.5-11,34.9-22,52.3-33.1c3.1-2,4.7-2.2,4.3,2.3
		c-0.3,3.6-0.9,7.4-0.4,10.9c1.3,7.8-2.8,10.8-9.3,13.8c-19.1,8.7-37.8,18.2-56.7,27.3C734.7,594.9,733.1,596.3,731,596L731,596z"/>
	<path class="st10" d="M787.5,627.8c-10.4,7.2-19.8,14.9-30.2,20.4c-6.3,3.4-14.4,3.5-21.7,5c-13.5,2.8-27,5.6-40.5,8.4
		c-0.5,0.1-1,0.1-1.5,0.3c-2.1,0.5-3.5-0.2-4.2-2.4c-0.9-2.7,1.4-2.6,2.8-3.1c13.4-4.4,26.9-8.7,40.3-13.1c16-5.1,32-10.3,48-15.4
		C782.4,627.3,784.4,626.2,787.5,627.8z"/>
	<path class="st10" d="M739.8,659.9c-10,10.4-21.6,14.8-34.9,15c-2.6,0-5.3,0.5-7.9,0.9c-2.1,0.3-3-0.4-3.5-2.4
		c-0.6-2.4,0.6-2.9,2.4-3.3C710.3,666.7,724.7,663.4,739.8,659.9z"/>
	<path class="st10" d="M724,379.7c4.9,3.5,10,6.9,14.7,10.7c2.7,2.1,1,3.7-1.4,4.6c-3.4,1.1-6.9,0.6-10.3,0.8
		c-1.5,0.1-2-0.8-2.2-2.1c-0.7-4.4-1.3-8.8-2-13.2C723.3,380.2,723.6,379.9,724,379.7z"/>
	<path class="st10" d="M703.3,610.2c-7.7,3.7-15.4,7.4-23,11.1c-1.4,0.7-2.1,0.2-2.6-1.2c-0.8-2-0.8-3.5,1.3-5.1
		C686.1,609.8,693.6,606.1,703.3,610.2z"/>
	<path class="st10" d="M706.4,683.9c-2.3,1.7-4.7,3.3-7,5c-0.8,0.6-1.7,1.3-2.7,0.7c-1.2-0.8-1-2.3-1.1-3.6c0-1.2,0.9-1.6,1.9-1.8
		c2.8-0.4,5.7-0.8,8.5-1.1C706.1,683.3,706.2,683.6,706.4,683.9z"/>
	<path class="st10" d="M679.1,604.7c-1.1,1.8-2.6,3-4.1,2.8c-2.2-0.2-1.9-2.7-2.3-4.3c-0.3-1,0.7-1.5,1.6-1.2
		C676,602.6,677.8,603.1,679.1,604.7z"/>
	<path class="st10" d="M730.9,595.9c0,0.1-0.1,0.3-0.1,0.4C730.9,596.2,730.9,596.1,730.9,595.9C731,596,730.9,595.9,730.9,595.9z"
		/>
	<path class="st0" d="M600.5,243.1c0.3,4.2,2.4,6.9,6.4,8.5c4,1.7,6.8,4.6,6.1,9.6c-0.6,0.4-1.2,0.8-1.8,1.1c-0.7-0.2-1,0.1-1.2,0.7
		c-0.3,0.1-0.5,0.2-0.8,0.2c-0.6-0.2-1,0.1-1.2,0.7c-7.3,3.1-14.5,6.2-21.8,9.2v-0.4c0-1.9-0.4-3.4-1.7-5c-2-2.4-3.7-5-4.6-8.1
		c0.1-0.1,0.2-0.3,0.3-0.3c6.7-2.6,13.1-5.6,16.5-12.7C597.4,245.2,599.2,244.3,600.5,243.1z"/>
	<path class="st0" d="M579.8,259.7c0.9,3,2.6,5.7,4.6,8.1c1.3,1.6,1.7,3.1,1.7,5c-1,0.3-1.9,0.6-2.2,1.8c-0.9,0.3-1.9,0.5-2.8,0.8
		c-3.2-3.9-5.7-8.3-8.3-12.7C574.9,261.1,577.3,260.3,579.8,259.7z"/>
	<path class="st0" d="M452,368.3c0.3,1.5,0.7,2.9,1,4.4c-3.5,0.7-4.9,2.3-2.7,5.8c1.3,2.1,1.3,4.3,0.2,6.7c-0.9,1.8-0.8,3.8-0.6,5.9
		c0.1,1.7,2.5,4.3-0.6,5c-2.8,0.6-5.9,1.5-8.7-1.6c-4.3-4.7-9.1-9.4-16.4-8.7c0-2.6-1.8-2.7-3.8-2.7c-3.1,0-6.2-0.2-8.7-2.4
		c6.5-5,13-9.9,20.9-12.8c3.7-1.4,7.4-1.1,11.2-0.5C446.5,367.8,449.3,368,452,368.3z M433.7,384.1c3.9,0.9,7.8,1.4,11.6-0.4
		C441.4,383.2,437.5,382.4,433.7,384.1z"/>
	<path class="st0" d="M474.8,348.6c0-2,0.8-2.7,1.6-3.2c3.7-1.8,2.5-4.3,1.2-7c-6.3-13.9-18.1-19.6-32.4-21.4
		c-6.6-0.8-13.2-0.7-19.8-0.5c12.8-5.4,25.7-6.5,38.7-0.6c12.2,5.6,20.7,15.1,27.6,26.3c0.9,1.4,1.3,2.6-1.1,3.1
		C485.4,346.3,480.2,347.4,474.8,348.6z"/>
	<path class="st0" d="M445.3,355.6c-8.2,2.6-8.4,2.5-12.1-3.7c-0.8-1.4-1.8-2.8-2.5-4.3c-1.3-2.8-3-3.5-5.9-2.1
		c-2.4,1.1-4.9,2.5-8.2,1.2c4.2-2.5,8.2-5.2,12.5-7.4c1.9-1,4.1-0.4,5.6,1.8C438,345.9,441.5,350.5,445.3,355.6z"/>
	<path class="st0" d="M420.1,407.7c-0.6,4.3,0.8,8.5,3.6,11.2c4.5,4.4,2.7,8.3,0.3,12.3c-3.1,5.3-10.4,7.1-17.1,4.8
		c5.7-2.1,5.2-1.8,2.4-7.6c-2.7-5.6-4.4-11.7-5.4-17.9c-0.4-2.7,1.5-4.7,3-6.6c3.7-4.5,6.6-9.7,12.4-12.1
		C419.7,397.1,419.9,402.4,420.1,407.7z"/>
	<path class="st6" d="M450.4,422.5c-1.5,1-1.7,2.4-1.1,3.9c2.9,7.7,6.7,14.6,14.8,18.2c8.1,3.6,9.7,6.2,4.8,13.6
		c-3.4,5.2-1.9,8.6,0.1,12.9c0.5,1,1.2,2,0.7,3.3c-9.1-12.1-19.2-23.6-21.9-39.2c-0.8-4.4-0.7-8.9-1-13.4c-0.2-2.3,1-3.4,3.2-3.6
		C450.1,419.6,450.3,421,450.4,422.5z"/>
	<path class="st0" d="M494.5,407.6c6.7-5.4,14-7.8,22.5-4.7c0.9,0.3,1.9,0.7,2,1.4c-7.8,3.4-16.2,3.9-24.3,6
		C494.8,409.4,494.7,408.5,494.5,407.6z"/>
	<path class="st6" d="M509.1,395c-0.5,2-1.7,2.4-3.4,1.4c-3.5-2.1-6.9-3-10.8-0.8c-1.4,0.7-2.8-0.2-5-1.7c6.8-2,9.7-10.6,18.1-7.7
		c-0.6,2.7-1.4,5.4-1.6,8.2C506.4,395.2,508.2,394.8,509.1,395z"/>
	<path class="st6" d="M496.3,421.4c0.6-3.8,2.3-5.3,5.8-5.5c5.2-0.3,10.2-1.6,15-3.2c2.2-0.7,2.9-0.1,3.3,2c0.6,2.9-1.6,1.2-2.4,1.8
		C511.6,421.2,503.6,418.8,496.3,421.4z"/>
	<path class="st6" d="M450.4,422.5c-0.2-1.5-0.3-2.9-0.5-4.4c3.9-2.3,6.1,1.6,9.1,2.6c1.5,0.5,2.7,2.3,4,3.5c-2,2.9-4.4,4.8-8.1,3.1
		C453.4,425.7,451.9,424.1,450.4,422.5z"/>
	<path class="st11" d="M509.1,395c-0.9-0.2-2.7,0.2-2.6-0.7c0.2-2.7,1-5.5,1.6-8.2c1.7,0,3.3-1.7,4.9-0.1c-0.1,0.8-0.2,1.6,0.7,2
		c0.6,2,0.7,3.9-1.1,5.4c-1.3-0.5-2.2-0.3-2.7,1.1C509.6,394.8,509.4,395,509.1,395z"/>
	<path class="st6" d="M494.5,407.6c0.1,0.9,0.2,1.7,0.3,2.6c-1.6,1.3-3.2,2.9-5.5,2.4c-0.3-0.1-0.7-1.1-0.6-1.7
		c0.3-2.9,3.1-2.2,4.8-3.2C493.9,407.6,494.2,407.7,494.5,407.6z"/>
	<path class="st6" d="M509.8,394.5c0.5-1.4,1.5-1.6,2.7-1.1C511.9,394.4,511,394.8,509.8,394.5z"/>
	<path class="st2" d="M446.5,484c-1.3-0.4-2-0.9-0.6-2C446.7,482.5,446.8,483.2,446.5,484z"/>
	<path class="st7" d="M490.1,374.1c0.6-1.1,1.3-1.1,2-0.2C491.5,374,490.8,374,490.1,374.1z"/>
	<path class="st6" d="M513.7,388.1c-0.8-0.5-0.8-1.2-0.7-2C514,386.4,514,387.2,513.7,388.1z"/>
	<path class="st7" d="M495.2,369c-0.3-0.7,0-1,0.7-1.1C495.7,368.3,495.5,368.7,495.2,369z"/>
	<path class="st7" d="M499.9,367c0.2-0.5,0.6-0.7,1.1-0.3C500.6,366.8,500.2,366.9,499.9,367z"/>
	<path class="st2" d="M436.3,443.9c-0.1-0.4-0.2-0.7-0.3-1.1c0.2,0.2,0.4,0.4,0.5,0.7C436.6,443.6,436.4,443.8,436.3,443.9z"/>
	<path class="st10" d="M663.8,557.2c-3.6-6.4-2.5-11.2,1.9-16.5c12-14.3,23.3-29.1,35-43.6c2.1-2.7,3.7-5.5,8.4-4.2
		c2.8,0.8,5.5-2.6,8.4-3.8c2-0.8,4.8-4,5.7-2c1.4,2.9,2.7,6.9,0.5,10.4c-0.3,0.6-0.9,1-1.4,1.4c-18.7,18.7-37.4,37.5-56.1,56.2
		C665.6,555.7,664.8,556.3,663.8,557.2z"/>
	<path class="st10" d="M725.8,505.1c0.4,6,0.8,11.8,1.3,17.6c0.2,2.3-0.9,3.7-2.5,5.1c-17.3,14.6-34.5,29.2-51.8,43.9
		c-1.2,1-2.7,2.7-4,0.4c-1.1-2.1-4.2-4-1.4-6.9c3.3-3.5,6.6-7,9.9-10.5c15-15.8,30-31.7,44.9-47.5
		C723,506.2,723.6,505.1,725.8,505.1z"/>
	<path class="st10" d="M648.3,486.8c-2.1-9.8-2.4-18.2-3.1-26.6c-0.1-0.6,0.1-1.4,0.3-1.9c6.7-15.1,13.5-30.2,21.2-45.3
		c1.7,10.5,3.4,21.1,5.1,31.6c0.2,1.2-0.1,2.3-0.7,3.3C663.8,460.4,656.4,472.9,648.3,486.8z"/>
	<path class="st10" d="M644.9,443.7c1.3-29.5,4.7-57.9,11.3-85.9c0.5,0,1,0,1.6,0c0.9,5.2,1.8,10.4,2.6,15.6
		c1.2,7.6,2.1,15.2,3.8,22.6c1.3,5.8,0.1,10.6-2.5,15.7c-4.7,9-8.9,18.3-13.3,27.4C647.6,440.6,647.3,442.3,644.9,443.7z"/>
	<path class="st10" d="M654.9,528.3c-0.3-2.7,0.8-4,1.7-5.4c7.7-11.6,15.6-23.2,23.2-34.9c1.6-2.5,3.2-3.4,6.1-2.2
		c2.9,1.2,5.9,2.2,9,2.9c3.3,0.9,3.6,2,1.3,4.6c-10.5,12.3-20.8,24.6-31.2,37c-0.3,0.4-0.6,0.8-1,1.1c-2,1.7-3.4,6.1-5.4,5.1
		C655.7,535.2,656,530.6,654.9,528.3z"/>
	<path class="st10" d="M727.9,532.9c0,6.9,0,12.1,0,17.4c0,2-1.4,2.9-2.7,3.9c-13.4,9.6-26.9,19-40.3,28.7c-3.7,2.7-6,0.3-8.2-1.8
		c-2-1.8,0.6-2.9,1.6-3.8c6.9-6.3,13.8-12.5,20.8-18.7C708.3,550.3,717.4,542.2,727.9,532.9z"/>
	<path class="st10" d="M673.8,455.9c1.2,7.5,2.3,15,3.6,22.6c0.2,1.4,0.1,2.6-0.7,3.8c-7.7,10.8-15.4,21.6-23.6,32.3
		c-0.9-8.2-5.3-15.9,0.4-24.5c7.2-10.9,12.8-22.8,19.2-34.3C673.1,455.8,673.4,455.8,673.8,455.9z"/>
	<path class="st10" d="M726.6,561.6c0,15.3-17.1,31.3-30.1,28.4c-1.6-0.4-3.8-0.2-4.3-1.8s1.6-2.2,2.7-3.1c9-6.9,18-13.7,27.1-20.5
		C723.4,563.6,724.8,562.8,726.6,561.6z"/>
	<path class="st10" d="M361,309c0.3,5.8,3.7,10.6,5.6,15.8c1.9,5.3,4.2,10.5,6.4,16c-4.3,0.3-7.8-1.5-11.3-2.7
		c-7.1-2.4-13.9-3-20.7,0.8c-2.9,1.6-4,0.4-5.5-2.5c-4.2-8-7.7-16.5-13.6-23.5l0.1,0.1c0-0.8-0.3-2,0.2-2.4c5-4.2,9.8-9.1,16.3-10.6
		c4.9-1.1,10.2-0.1,15.3-0.2c1.9-0.1,2.9,1.4,4.3,2.1L358,302c-0.1,1.2-0.2,2.4,1,3.1V305c0,0.9,0,1.8,1.1,2.1L360,307
		C359.9,307.9,359.8,308.8,361,309L361,309z"/>
	<path class="st10" d="M358.1,302.1c0.2-3.1,2.6-2,4.1-2c9.5-0.1,18.9,0,28.4,0.1c4.7,0,8.4,6.1,5.7,10.1c-5.5,8.1-8.9,17-10.3,26.7
		c-0.6,4.5-5.2,4.3-8.1,5.4c-2.5,0.9-2.5-2.4-3.2-4c-4.7-9.7-8.3-19.9-13.6-29.3l0.1,0.1c0-0.9,0-1.7-1.1-2.1l0.1,0.1
		c0-0.9,0-1.7-1.1-2.1l0.1,0.1C359.1,303.9,359,302.8,358.1,302.1L358.1,302.1z"/>
	<path class="st10" d="M322,313c3.6,7.3,7,14.7,10.9,21.8c2.1,3.8,0.7,5.1-2.8,6.4c-3.1,1.2-6.5-0.2-9.3,1.1
		c-5.2,2.3-10.9,2.5-16.2,4c-2.8,0.8-3.9,0.2-5.2-1.9c-1.9-3.1-3.9-6.2-6.1-9.1c-1.8-2.5-1.9-4.2,0.9-6c7.8-5.1,15.3-10.6,23-15.8
		C318.8,312.4,320.3,311,322,313C322.1,313.1,322,313,322,313z"/>
	<path class="st10" d="M200.1,398.1c-1-2-0.3-3.3,1.5-4.5c8.5-5.8,16.9-11.7,25.2-17.7c2-1.4,2.9-0.2,4.2,0.9c1.7,1.5,2.5,4,5.2,4.4
		L236,381c0.1,0.7,0.4,1.1,1.1,1.1L237,382c0.3,3.7,3.6,5.3,5.7,7.8c1.5,1.9,1.5,2.9-0.5,4.3c-7.5,5.4-15,10.9-22.4,16.5
		c-2.2,1.7-3.6,1.3-5.5-0.5c-2.6-2.5-4.9-5.4-8.2-7.1l0.1,0.1c-0.4-0.4-0.7-0.7-1.1-1.1l0.1,0.1c-0.7-0.4-1.4-0.7-2.1-1.1l0.1,0.1
		c-0.2-1.2-0.9-1.9-2.1-2.1l0.1,0.1C200.7,398.7,200.4,398.3,200.1,398.1L200.1,398.1z"/>
	<path class="st10" d="M236.1,381c-0.1-0.3-0.2-0.6-0.4-0.9c-5.3-6.6-5.3-6.6,1.7-11.4c6.2-4.2,12.3-8.5,18.4-12.8
		c2-1.5,3.9-2.3,6.3-0.8L262,355c1.4,5,5.2,8.4,8.2,12.3c2.3,3,2.1,4.8-0.9,6.9c-6.8,4.8-13.5,9.8-20.1,14.8c-2.3,1.8-4,1.6-5.9-0.6
		c-1.9-2.3-4.2-4.2-6.3-6.4l0.1,0.1C236.7,381.7,236.4,381.3,236.1,381L236.1,381z"/>
	<path class="st10" d="M167,417.8c9.6-6.8,19.2-13.5,28.7-20.3c1.7-1.2,3.1-0.9,4.4,0.5l-0.1-0.1c0.4,0.4,0.7,0.7,1.1,1.1l-0.1-0.1
		c0.7,0.7,1.4,1.4,2.1,2.1l-0.1-0.1c0.7,0.4,1.4,0.7,2.1,1.1l-0.1-0.1c0.4,0.4,0.7,0.7,1.1,1.1l-0.1-0.1c1.4,3.6,4.8,5.4,7.2,8.1
		c1.6,1.7,2,3.1-0.5,4.2c-10.2,4.5-20.4,9-30.6,13.5c-1.1,0.5-2.3,0.5-3.2-0.4C175.9,423.6,170.2,422.2,167,417.8z"/>
	<path class="st10" d="M262.1,355c-0.9-1.8-0.5-3.1,1.2-4.2c8.1-5.5,16.2-11.1,24.2-16.8c1.9-1.3,3-1.2,4.4,0.8
		c8.8,12.7,8.8,12.6-2.8,22.4c-4,3.3-8,6.6-11.8,10.1c-2.2,2-3.6,2.2-5.5-0.4C268.7,362.8,265.3,358.9,262.1,355
		C262,355,262.1,355,262.1,355z"/>
	<path class="st10" d="M167,417.8c3.2,4.4,9,5.8,12,10.5c0,1.3-0.7,2.1-1.9,2.7c-10.6,4.7-21.2,9.3-31.9,14
		c-2.3-9.2-1.5-11.6,5.7-16.4C156.2,425,161.6,421.4,167,417.8z"/>
	<path class="st10" d="M406.4,300.2c-2.3,2.1-3.4,3.3-4.7,4.4c-0.9,0.7-1.7,2.8-3,1.5c-1-1-1.5-3-1.5-4.6c0-1.9,2-1.2,3.2-1.3
		C401.9,300.1,403.5,300.2,406.4,300.2z"/>
	<path class="st10" d="M641.8,328.5c-3.2,17.8-6.3,34.6-9.3,51.5c-2.6,14.6-4.3,29.3-5.4,44c-0.2,2.2-0.6,4.3-1.3,6.3
		c-4.9,12.9-10,25.7-14.7,38.7c-1.2,3.3-2.4,4.8-5.9,2.6c-2.5-1.6-6.6-1.8-7.7-3.9c-1.7-3.1,2.9-4.5,4.3-7.1
		c3.3-5.8,5.1-12.3,4.9-18.6c-0.5-17.9,5.9-34.3,9.9-51.2c4-16.8,9-33.4,12.8-50.3C630.8,333.4,635.6,331.2,641.8,328.5z"/>
	<path class="st10" d="M627.3,337.6c-6.8,23.5-13.6,47-20.4,70.5c-0.3,0-0.6,0-0.9,0c-0.9-6.9-1.8-13.8-2.9-20.6
		c-1.5-10.3-3.2-20.7-4.7-31c-0.3-1.8-1-3.6,1.2-4.8c8.8-4.9,17.6-9.9,26.4-14.8C626.5,337.1,626.9,337.4,627.3,337.6z"/>
	<path class="st10" d="M537.1,388c0.5,5.8,0.9,11.7,1.5,17.5c1.4,12.2,5.3,23.6,11.1,34.4c1.3,2.5,1.8,4.8,1.4,7.6
		c-1,7.2-1.7,14.5-2.5,21.7c-1.9,0.6-2.3-0.6-2.7-1.7c-1.7-4.8-4.6-8.8-8.5-12.1c-0.8-0.6-1.6-1.3-1.6-2.4
		c0.4-7.4-1.2-14.9,1.1-22.3c2.6-8.5,1.6-17.1-0.4-25.6C535.4,399.4,536.3,393.7,537.1,388z"/>
	<path class="st10" d="M625.7,448c0.8,10.5,1.5,21.1,2.2,31.6c0.1,1.9-0.2,4-2,4.8c-1.5,0.7-2.5-1.2-3.6-2.1
		c-7.4-5.7-7.4-5.8-4.2-14.6c2.3-6.6,4.7-13.1,7-19.7C625.2,448,625.5,448,625.7,448z"/>
	<path class="st10" d="M557.3,452.1c3.6,4.1,6.8,7.5,10.6,10.4c2,1.5,1.6,2.7-0.9,3.2c-0.7,0.1-1.3,0.1-2,0.2c-10,1.4-10,1.4-8.6-9
		C556.6,455.6,556.9,454.2,557.3,452.1z"/>
	<path class="st10" d="M529.2,450.7c-1.5-2.9-2.8-4.7-1.3-6.9c0.4-0.6,1.5-0.8,1.6-0.3C530.1,445.5,530,447.5,529.2,450.7z"/>
	<path class="st2" d="M583.9,274.6c0.2-1.2,1.2-1.5,2.2-1.8v0.4C585.8,274.3,585.1,274.8,583.9,274.6z"/>
	<path class="st6" d="M609.9,263.1c0.2-0.6,0.6-0.9,1.2-0.7C610.7,262.6,610.3,262.8,609.9,263.1z"/>
	<path class="st6" d="M607.9,264c0.2-0.5,0.6-0.9,1.2-0.7C608.7,263.5,608.3,263.7,607.9,264z"/>
	<path class="st10" d="M574.1,441.6c-4.7-4-6.7-8.7-9-13.2c-3.4-6.7-5.6-13.5-4.4-21.5c1.6-10.3,2.1-20.8,2.9-31.2
		c0.2-2.8,1.2-4.6,3.8-5.8c3.3-1.6,6.5-3.4,9.6-5.4c2.6-1.6,3.4-1.7,4.4,1.9c5,18.2,1.3,35.9-2.8,53.6
		C577,426.9,575.7,433.9,574.1,441.6z"/>
	<path class="st10" d="M586.7,409c1.1,12.7,2.3,25.2,0.2,37.8c-0.3,1.5-0.2,4-2.5,3.5s-5.4-1.6-4.8-4.7c1.9-12,4.1-23.9,6.3-35.8
		C585.9,409.5,586.3,409.3,586.7,409z"/>
	<path class="st10" d="M555.9,391.3c0-4.4,0-8.8,0-13.2c0-1.5,0.8-2.8,2.2-2.8c2.4,0.1,1,2,0.9,3c-0.4,4.4-0.9,8.8-1.4,13.1
		C557.1,391.4,556.5,391.4,555.9,391.3z"/>
	<path class="st2" d="M405.2,469c-1.1,0.2-2.2,0.3-3.1-0.6C403.2,468,404.3,468,405.2,469z"/>
	<path class="st6" d="M433.7,384.1c3.8-1.8,7.7-1,11.6-0.4C441.5,385.6,437.6,385,433.7,384.1z"/>
	<path class="st9" d="M358,302c1,0.8,1.1,1.9,1,3.1C357.8,304.3,357.9,303.1,358,302z"/>
	<path class="st9" d="M360,307c1,0.4,1,1.2,1.1,2.1C359.8,308.8,359.9,307.9,360,307z"/>
	<path class="st9" d="M359,305c1.1,0.3,1.1,1.2,1.1,2.1C359,306.7,359,305.8,359,305z"/>
	<path class="st9" d="M203.1,401.1c-0.7-0.7-1.4-1.4-2.1-2.1C202.2,399.2,202.9,399.8,203.1,401.1z"/>
	<path class="st9" d="M205.1,402c-0.7-0.4-1.4-0.7-2.1-1.1C203.7,401.3,204.4,401.7,205.1,402z"/>
	<path class="st9" d="M206.1,403c-0.4-0.4-0.7-0.7-1.1-1.1C205.4,402.3,205.7,402.7,206.1,403z"/>
	<path class="st9" d="M236,381c0.4,0.4,0.7,0.7,1.1,1.1C236.4,382,236.1,381.6,236,381z"/>
	<path class="st9" d="M201.1,399.1c-0.4-0.4-0.7-0.7-1.1-1.1C200.4,398.3,200.7,398.7,201.1,399.1z"/>
	<path class="st6" d="M662.4,63.8c0.4,4.7,0.6,9.4,2.3,13.9c0,1.7-0.1,3.3,0.6,4.9c-0.5,0.8-0.3,1.5,0.4,2c0.5,3.3,1,6.6,1.5,9.9
		c-0.5,0.9-0.4,1.6,0.5,2.1c0.1,1.3,0.2,2.7,0.4,4c2.4,19.3,5.1,38.5,8.1,57.7c2.7,17.2,4.9,34.5,7.3,51.8c0.5,3.9-7.8,12-11.6,11.3
		c-2.2-0.4-1.9-2.6-2.1-4c-1.8-11.3-3.5-22.7-5.3-34c-4.9-30.8-9.8-61.7-14.6-92.5c-1.3-8.7-2.1-17.4-3.2-26.2
		c1.2-1.5,2.8-1.9,4.7-2.1c3.5-0.3,6.8,1.3,10.2,1C661.8,63.8,662.1,63.8,662.4,63.8z"/>
	<path class="st6" d="M661.6,63.7c-3.5,0.3-6.7-1.3-10.2-1c-1.9,0.2-3.5,0.5-4.7,2.1c-2-5-0.5-8.2,4.3-8.9c2.4-0.3,5-0.4,7.4-0.1
		C663.5,56.6,660.9,60.9,661.6,63.7z"/>
	<path class="st7" d="M696.5,109.3c-1.8-6-3.6-11.8-7.4-16.8c-1.8-2.3,0-2.9,1.9-2.9c2.2,0,3.6,1.5,4.5,3.4
		C698.1,98.2,698.6,103.6,696.5,109.3z"/>
	<path class="st7" d="M686.2,112.3c-1.9-6.5-3.8-11.7-7.2-16.3c-0.9-1.2-1.8-2.8-0.1-3.9c1.4-0.9,3-0.2,4,1
		c2.9,3.2,4.2,7.1,4.3,11.3C687.2,106.6,687.5,108.9,686.2,112.3z"/>
	<path class="st7" d="M705,106.8c-1.5-6.6-3.2-11.7-6.6-16c-1.5-1.9-0.5-2.6,1.5-2.7c1.8,0,3.2,0.8,4.1,2.4
		C706.8,95.3,707.1,100.2,705,106.8z"/>
	<path class="st6" d="M647.6,246.3c6.3-3.9,13.6-6,20.2-9.4c2.3-1.2,5.1-1.7,6.9-3.9c1.4-0.6,2.7-1.1,4-1.7c0.8-0.3,1.6-0.4,2.4-0.7
		c1,0.3,1.6-0.3,1.9-1.2c6.3-2.7,12.4-5.3,18.7-7.9c0.3-0.2,0.7-0.4,1-0.6c0.3-0.1,0.5-0.1,0.7-0.2c0.3-0.2,0.7-0.4,1-0.6
		c0.5-0.3,1-0.7,1.5-0.9c0.4,0,0.8,0,1.2,0c2,5.6,4.2,11,4,17.1c-12.9,8.1-27.1,13.7-40.4,21.1c-6.5,3.6-12.9,7.6-20.4,9.3
		c-1.5-1.7-1.9-3.7-1.9-5.9C648.5,255.8,649,251,647.6,246.3z"/>
	<path class="st6" d="M647.6,246.3c1.3,4.7,0.9,9.5,0.9,14.3c0,2.2,0.3,4.2,1.9,5.9c-3.4,3-5.3,2.7-7.2-0.9
		C640.1,259.4,642.4,249.2,647.6,246.3z"/>
	<path class="st6" d="M711.2,236.1c0.2-6.1-2.1-11.5-4-17.1c0.6-1.4,2.5-0.5,3.2-1.7c0.5,0,1.1-0.1,1.6-0.1
		c6.4,2.3,5.1,7.9,5.1,12.8C717.1,233.7,714.3,235.1,711.2,236.1z"/>
</g>
</svg>
